# femur_shell -- Spyder-v0 visual shell, generated by make_spyder_mesh.py
# visual only: MuJoCo collides the capsules in spyder12.xml, not this mesh
v 0.000000 0.081506 0.000000
v 0.001200 0.085433 0.008077
v 0.008146 0.085433 -0.000567
v -0.000678 0.084665 0.003647
v 0.001982 0.085737 0.001593
v 0.004706 0.086382 0.003782
v 0.003415 0.084665 -0.001447
v 0.311127 0.063506 0.250000
v 0.309927 0.067974 0.241923
v 0.302981 0.067974 0.250567
v 0.311780 0.066840 0.246384
v 0.309159 0.067972 0.248419
v 0.306487 0.068923 0.246272
v 0.307736 0.066840 0.251416
v 0.036100 0.057633 -0.044926
v 0.040057 0.064331 -0.040280
v 0.044968 0.056490 -0.046392
v 0.037421 0.062178 -0.043767
v 0.039956 0.060625 -0.045666
v 0.042966 0.061082 -0.043833
v 0.040315 0.057557 -0.047369
v 0.339254 0.044905 0.214995
v 0.339016 0.044145 0.205721
v 0.334105 0.051985 0.211833
v 0.340792 0.044981 0.210278
v 0.339264 0.048063 0.210952
v 0.337014 0.048736 0.208281
v 0.337933 0.049545 0.213837
v 0.051053 0.000000 -0.063536
v 0.058186 0.005544 -0.062842
v 0.058186 -0.005544 -0.062842
v 0.054401 0.003267 -0.064899
v 0.055685 0.000000 -0.065241
v 0.058814 0.000000 -0.063555
v 0.054401 -0.003267 -0.064899
v 0.350905 -0.000000 0.200496
v 0.349031 -0.005544 0.193258
v 0.349031 0.005544 0.193258
v 0.351625 -0.003228 0.196797
v 0.351735 0.000000 0.195433
v 0.349659 -0.000000 0.192545
v 0.351625 0.003228 0.196797
v 0.036100 -0.057633 -0.044926
v 0.044968 -0.056490 -0.046392
v 0.040057 -0.064331 -0.040280
v 0.040315 -0.057557 -0.047369
v 0.039956 -0.060625 -0.045666
v 0.042966 -0.061082 -0.043833
v 0.037421 -0.062178 -0.043767
v 0.339254 -0.044905 0.214995
v 0.334105 -0.051985 0.211833
v 0.339016 -0.044145 0.205721
v 0.337933 -0.049545 0.213837
v 0.339264 -0.048063 0.210952
v 0.337014 -0.048736 0.208281
v 0.340792 -0.044981 0.210278
v 0.000000 -0.081506 0.000000
v 0.008146 -0.085433 -0.000567
v 0.001200 -0.085433 0.008077
v 0.003415 -0.084665 -0.001447
v 0.001982 -0.085737 0.001593
v 0.004706 -0.086382 0.003782
v -0.000678 -0.084665 0.003647
v 0.311127 -0.063506 0.250000
v 0.302981 -0.067974 0.250567
v 0.309927 -0.067974 0.241923
v 0.307736 -0.066840 0.251416
v 0.309159 -0.067972 0.248419
v 0.306487 -0.068923 0.246272
v 0.311780 -0.066840 0.246384
v -0.036100 -0.057633 0.044926
v -0.030711 -0.064331 0.047790
v -0.035622 -0.056490 0.053902
v -0.034683 -0.062178 0.045967
v -0.035992 -0.060625 0.048851
v -0.033553 -0.061082 0.051396
v -0.037578 -0.057557 0.049569
v 0.283000 -0.044905 0.285005
v 0.273892 -0.044145 0.286769
v 0.278803 -0.051985 0.280657
v 0.278724 -0.044981 0.287522
v 0.279053 -0.048063 0.285885
v 0.275960 -0.048736 0.284263
v 0.281584 -0.049545 0.283964
v -0.051053 -0.000000 0.063536
v -0.048840 -0.005544 0.070352
v -0.048840 0.005544 0.070352
v -0.051663 -0.003267 0.067098
v -0.051721 -0.000000 0.068426
v -0.049401 0.000000 0.071119
v -0.051663 0.003267 0.067098
v 0.271349 0.000000 0.299504
v 0.263877 0.005544 0.299232
v 0.263877 -0.005544 0.299232
v 0.267892 0.003228 0.301004
v 0.266583 -0.000000 0.301404
v 0.263316 0.000000 0.299999
v 0.267892 -0.003228 0.301004
v -0.036100 0.057633 0.044926
v -0.035622 0.056490 0.053902
v -0.030711 0.064331 0.047790
v -0.037578 0.057557 0.049569
v -0.035992 0.060625 0.048851
v -0.033553 0.061082 0.051396
v -0.034683 0.062178 0.045967
v 0.283000 0.044905 0.285005
v 0.278803 0.051985 0.280657
v 0.273892 0.044145 0.286769
v 0.281584 0.049545 0.283964
v 0.279053 0.048063 0.285885
v 0.275960 0.048736 0.284263
v 0.278724 0.044981 0.287522
v 0.311127 -0.072500 0.174086
v 0.311127 -0.062500 0.164000
v 0.311127 -0.069571 0.166954
v 0.311127 0.072500 0.174086
v 0.311127 0.062500 0.164000
v 0.311127 0.069571 0.166954
v 0.330775 -0.072500 0.176673
v 0.333385 -0.062500 0.166930
v 0.332621 -0.069571 0.169784
v 0.330775 0.072500 0.176673
v 0.333385 0.062500 0.166930
v 0.332621 0.069571 0.169784
v 0.349084 -0.072500 0.184257
v 0.354127 -0.062500 0.175522
v 0.352650 -0.069571 0.178080
v 0.349084 0.072500 0.184257
v 0.354127 0.062500 0.175522
v 0.352650 0.069571 0.178080
v 0.364806 -0.072500 0.196321
v 0.371938 -0.062500 0.189189
v 0.369849 -0.069571 0.191278
v 0.364806 0.072500 0.196321
v 0.371938 0.062500 0.189189
v 0.369849 0.069571 0.191278
v 0.376870 -0.072500 0.212043
v 0.385605 -0.062500 0.207000
v 0.383047 -0.069571 0.208477
v 0.376870 0.072500 0.212043
v 0.385605 0.062500 0.207000
v 0.383047 0.069571 0.208477
v 0.384454 -0.072500 0.230352
v 0.394197 -0.062500 0.227742
v 0.391343 -0.069571 0.228506
v 0.384454 0.072500 0.230352
v 0.394197 0.062500 0.227742
v 0.391343 0.069571 0.228506
v 0.387041 -0.072500 0.250000
v 0.397127 -0.062500 0.250000
v 0.394173 -0.069571 0.250000
v 0.387041 0.072500 0.250000
v 0.397127 0.062500 0.250000
v 0.394173 0.069571 0.250000
v 0.384454 -0.072500 0.269648
v 0.394197 -0.062500 0.272258
v 0.391343 -0.069571 0.271494
v 0.384454 0.072500 0.269648
v 0.394197 0.062500 0.272258
v 0.391343 0.069571 0.271494
v 0.376870 -0.072500 0.287957
v 0.385605 -0.062500 0.293000
v 0.383047 -0.069571 0.291523
v 0.376870 0.072500 0.287957
v 0.385605 0.062500 0.293000
v 0.383047 0.069571 0.291523
v 0.364806 -0.072500 0.303679
v 0.371938 -0.062500 0.310811
v 0.369849 -0.069571 0.308722
v 0.364806 0.072500 0.303679
v 0.371938 0.062500 0.310811
v 0.369849 0.069571 0.308722
v 0.349084 -0.072500 0.315743
v 0.354127 -0.062500 0.324478
v 0.352650 -0.069571 0.321920
v 0.349084 0.072500 0.315743
v 0.354127 0.062500 0.324478
v 0.352650 0.069571 0.321920
v 0.330775 -0.072500 0.323327
v 0.333385 -0.062500 0.333070
v 0.332621 -0.069571 0.330216
v 0.330775 0.072500 0.323327
v 0.333385 0.062500 0.333070
v 0.332621 0.069571 0.330216
v 0.311127 -0.072500 0.325914
v 0.311127 -0.062500 0.336000
v 0.311127 -0.069571 0.333046
v 0.311127 0.072500 0.325914
v 0.311127 0.062500 0.336000
v 0.311127 0.069571 0.333046
v 0.291479 -0.072500 0.323327
v 0.288869 -0.062500 0.333070
v 0.289633 -0.069571 0.330216
v 0.291479 0.072500 0.323327
v 0.288869 0.062500 0.333070
v 0.289633 0.069571 0.330216
v 0.273170 -0.072500 0.315743
v 0.268127 -0.062500 0.324478
v 0.269604 -0.069571 0.321920
v 0.273170 0.072500 0.315743
v 0.268127 0.062500 0.324478
v 0.269604 0.069571 0.321920
v 0.257448 -0.072500 0.303679
v 0.250316 -0.062500 0.310811
v 0.252405 -0.069571 0.308722
v 0.257448 0.072500 0.303679
v 0.250316 0.062500 0.310811
v 0.252405 0.069571 0.308722
v 0.245384 -0.072500 0.287957
v 0.236649 -0.062500 0.293000
v 0.239207 -0.069571 0.291523
v 0.245384 0.072500 0.287957
v 0.236649 0.062500 0.293000
v 0.239207 0.069571 0.291523
v 0.237800 -0.072500 0.269648
v 0.228057 -0.062500 0.272258
v 0.230911 -0.069571 0.271494
v 0.237800 0.072500 0.269648
v 0.228057 0.062500 0.272258
v 0.230911 0.069571 0.271494
v 0.235213 -0.072500 0.250000
v 0.225127 -0.062500 0.250000
v 0.228081 -0.069571 0.250000
v 0.235213 0.072500 0.250000
v 0.225127 0.062500 0.250000
v 0.228081 0.069571 0.250000
v 0.237800 -0.072500 0.230352
v 0.228057 -0.062500 0.227742
v 0.230911 -0.069571 0.228506
v 0.237800 0.072500 0.230352
v 0.228057 0.062500 0.227742
v 0.230911 0.069571 0.228506
v 0.245384 -0.072500 0.212043
v 0.236649 -0.062500 0.207000
v 0.239207 -0.069571 0.208477
v 0.245384 0.072500 0.212043
v 0.236649 0.062500 0.207000
v 0.239207 0.069571 0.208477
v 0.257448 -0.072500 0.196321
v 0.250316 -0.062500 0.189189
v 0.252405 -0.069571 0.191278
v 0.257448 0.072500 0.196321
v 0.250316 0.062500 0.189189
v 0.252405 0.069571 0.191278
v 0.273170 -0.072500 0.184257
v 0.268127 -0.062500 0.175522
v 0.269604 -0.069571 0.178080
v 0.273170 0.072500 0.184257
v 0.268127 0.062500 0.175522
v 0.269604 0.069571 0.178080
v 0.291479 -0.072500 0.176673
v 0.288869 -0.062500 0.166930
v 0.289633 -0.069571 0.169784
v 0.291479 0.072500 0.176673
v 0.288869 0.062500 0.166930
v 0.289633 0.069571 0.169784
vn -0.74326 0.35861 -0.56477
vn -0.73366 0.44014 -0.51771
vn -0.66816 0.51509 -0.53689
vn -0.65191 0.41353 -0.63562
vn -0.24877 0.96085 0.12201
vn -0.01424 0.99835 -0.05565
vn -0.18842 0.97035 -0.15140
vn -0.45739 0.88837 0.03993
vn 0.06851 0.94209 -0.32829
vn -0.06530 0.89892 -0.43322
vn 0.76409 0.26038 0.59022
vn 0.73957 0.42295 0.52359
vn 0.67860 0.49211 0.54528
vn 0.65858 0.39852 0.63832
vn 0.31099 0.94794 -0.06846
vn 0.08349 0.99027 0.11130
vn 0.25107 0.94671 0.20174
vn 0.50524 0.86293 0.00942
vn -0.00433 0.92713 0.37472
vn 0.12414 0.87342 0.47088
vn -0.63869 0.20509 -0.74163
vn -0.52845 0.35080 -0.77310
vn -0.44002 0.36422 -0.82081
vn -0.48474 0.23080 -0.84366
vn 0.22284 0.85686 -0.46491
vn 0.42162 0.68157 -0.59808
vn 0.24136 0.68614 -0.68626
vn -0.00565 0.85277 -0.52226
vn 0.43095 0.45485 -0.77935
vn 0.27839 0.42577 -0.86094
vn 0.89505 0.22649 0.38417
vn 0.91679 0.26010 0.30304
vn 0.89656 0.34797 0.27403
vn 0.85069 0.34195 0.39923
vn 0.68532 0.49482 -0.53431
vn 0.52842 0.72460 -0.44242
vn 0.67038 0.66943 -0.32009
vn 0.83073 0.39159 -0.39566
vn 0.46039 0.86404 -0.20363
vn 0.56406 0.82217 -0.07661
vn -0.50279 0.02530 -0.86404
vn -0.42291 0.05597 -0.90444
vn -0.34552 -0.00000 -0.93841
vn -0.44746 -0.08714 -0.89005
vn 0.51026 0.25093 -0.82260
vn 0.58951 -0.03446 -0.80703
vn 0.41938 -0.00000 -0.90781
vn 0.29801 0.31763 -0.90017
vn 0.47143 -0.29883 -0.82973
vn 0.31185 -0.29680 -0.90258
vn 0.90327 -0.01647 0.42875
vn 0.96998 -0.05510 0.23684
vn 0.98684 0.00000 0.16167
vn 0.96149 0.08508 0.26135
vn 0.74932 -0.24816 -0.61396
vn 0.72536 0.03446 -0.68751
vn 0.84406 -0.00000 -0.53624
vn 0.85212 -0.30913 -0.42228
vn 0.76106 0.29481 -0.57782
vn 0.85244 0.28931 -0.43549
vn -0.64219 -0.15836 -0.75001
vn -0.47887 -0.27165 -0.83480
vn -0.44002 -0.36422 -0.82081
vn -0.56193 -0.35403 -0.74760
vn 0.44512 -0.50199 -0.74154
vn 0.39109 -0.73031 -0.56009
vn 0.24136 -0.68614 -0.68626
vn 0.27571 -0.40358 -0.87242
vn 0.16624 -0.87746 -0.44992
vn 0.01548 -0.84550 -0.53375
vn 0.87333 -0.26117 0.41120
vn 0.86799 -0.33803 0.36378
vn 0.89656 -0.34797 0.27403
vn 0.92606 -0.22164 0.30544
vn 0.46549 -0.84577 -0.26074
vn 0.55894 -0.67586 -0.48041
vn 0.67038 -0.66943 -0.32009
vn 0.55689 -0.82877 -0.05487
vn 0.72155 -0.44711 -0.52864
vn 0.82034 -0.41303 -0.39554
vn -0.71156 -0.35861 -0.60422
vn -0.66354 -0.44014 -0.60498
vn -0.66816 -0.51509 -0.53689
vn -0.76107 -0.41353 -0.49976
vn 0.06559 -0.96085 -0.26920
vn -0.05741 -0.99835 -0.00192
vn -0.18842 -0.97035 -0.15140
vn -0.05949 -0.88837 -0.45526
vn -0.30584 -0.94209 0.13759
vn -0.43712 -0.89892 0.02951
vn 0.74090 -0.26038 0.61909
vn 0.67055 -0.42294 0.60949
vn 0.67860 -0.49210 0.54528
vn 0.76515 -0.39852 0.50569
vn 0.00011 -0.94794 0.31844
vn 0.12666 -0.99027 0.05757
vn 0.25107 -0.94671 0.20175
vn 0.11798 -0.86293 0.49136
vn 0.36500 -0.92713 -0.08491
vn 0.48657 -0.87342 0.01984
vn -0.86175 -0.20509 -0.46402
vn -0.86875 -0.35080 -0.34959
vn -0.89630 -0.36422 -0.25297
vn -0.92824 -0.23079 -0.29171
vn -0.40602 -0.85686 0.31772
vn -0.49327 -0.68157 0.54050
vn -0.61820 -0.68614 0.38346
vn -0.51123 -0.85277 0.10693
vn -0.66828 -0.45485 0.58865
vn -0.78081 -0.42576 0.45723
vn 0.56787 -0.22649 0.79134
vn 0.49333 -0.26011 0.83004
vn 0.46065 -0.34797 0.81653
vn 0.57304 -0.34195 0.74478
vn -0.37422 -0.49482 0.78429
vn -0.31826 -0.72460 0.61129
vn -0.16824 -0.66943 0.72358
vn -0.20751 -0.39159 0.89643
vn -0.09972 -0.86404 0.49344
vn 0.04664 -0.82217 0.56733
vn -0.95203 -0.02530 -0.30495
vn -0.97429 -0.05597 -0.21824
vn -0.99080 0.00000 -0.13536
vn -0.96552 0.08714 -0.24533
vn -0.69344 -0.25093 0.67541
vn -0.66117 0.03446 0.74945
vn -0.79622 -0.00000 0.60501
vn -0.81489 -0.31763 0.48484
vn -0.70876 0.29883 0.63903
vn -0.81427 0.29680 0.49887
vn 0.61318 0.01647 0.78977
vn 0.44014 0.05510 0.89624
vn 0.37036 -0.00000 0.92889
vn 0.46224 -0.08508 0.88266
vn -0.43821 0.24816 0.86394
vn -0.51520 -0.03446 0.85638
vn -0.34192 0.00000 0.93973
vn -0.22890 0.30913 0.92306
vn -0.40039 -0.29481 0.86762
vn -0.24173 -0.28930 0.92621
vn -0.87069 0.15836 -0.46564
vn -0.91833 0.27164 -0.28789
vn -0.89630 0.36422 -0.25297
vn -0.85105 0.35403 -0.38778
vn -0.62830 0.50199 0.59434
vn -0.46274 0.73031 0.50251
vn -0.61820 0.68614 0.38346
vn -0.79259 0.40358 0.45709
vn -0.40357 0.87746 0.25922
vn -0.51790 0.84550 0.13004
vn 0.58960 0.26117 0.76431
vn 0.54214 0.33803 0.76930
vn 0.46065 0.34797 0.81653
vn 0.49767 0.22164 0.83857
vn -0.15439 0.84577 0.51071
vn -0.34879 0.67586 0.64927
vn -0.16824 0.66943 0.72358
vn 0.06632 0.82877 0.55564
vn -0.36088 0.44711 0.81845
vn -0.20963 0.41303 0.88626
vn 0.04299 -0.19653 -0.97956
vn 0.29505 -0.19653 -0.93505
vn 0.19954 -0.38518 -0.90101
vn -0.04046 -0.38518 -0.92195
vn 0.01667 -0.92491 -0.37983
vn 0.11441 -0.92491 -0.36258
vn 0.04187 -0.98107 -0.18908
vn -0.01268 -0.95728 -0.28889
vn 0.21201 0.19653 -0.95730
vn -0.04299 0.19653 -0.97956
vn 0.04046 0.38518 -0.92195
vn 0.27770 0.38518 -0.88007
vn 0.08221 0.92491 -0.37120
vn -0.01667 0.92491 -0.37983
vn 0.00849 0.98107 -0.19348
vn 0.08702 0.95728 -0.27577
vn 0.52701 -0.19653 -0.82683
vn 0.42594 -0.38518 -0.81866
vn 0.20435 -0.92491 -0.32061
vn 0.13347 -0.95728 -0.25653
vn 0.45255 0.19653 -0.86981
vn 0.49602 0.38518 -0.77821
vn 0.17548 0.92491 -0.33728
vn 0.06225 0.99327 -0.09766
vn 0.72305 -0.19653 -0.66225
vn 0.62331 -0.38518 -0.68053
vn 0.28037 -0.92491 -0.25680
vn 0.09797 -0.98942 -0.10696
vn 0.66225 0.19653 -0.72305
vn 0.68053 0.38518 -0.62331
vn 0.25680 0.92491 -0.28037
vn 0.21324 0.95728 -0.19531
vn 0.86981 -0.19653 -0.45255
vn 0.77821 -0.38518 -0.49602
vn 0.33728 -0.92491 -0.17548
vn 0.24385 -0.95728 -0.15543
vn 0.82683 0.19653 -0.52701
vn 0.81866 0.38518 -0.42594
vn 0.32061 0.92491 -0.20435
vn 0.17180 0.98107 -0.08939
vn 0.95730 -0.19653 -0.21201
vn 0.88007 -0.38518 -0.27770
vn 0.37120 -0.92491 -0.08221
vn 0.18469 -0.98107 -0.05828
vn 0.93505 0.19653 -0.29505
vn 0.90101 0.38518 -0.19954
vn 0.36258 0.92491 -0.11441
vn 0.28233 0.95728 -0.06253
vn 0.97956 -0.19653 0.04299
vn 0.92195 -0.38518 -0.04046
vn 0.37983 -0.92491 0.01667
vn 0.28889 -0.95728 -0.01268
vn 0.97956 0.19653 -0.04299
vn 0.92195 0.38518 0.04046
vn 0.37983 0.92491 -0.01667
vn 0.14491 0.98942 0.00636
vn 0.93505 -0.19653 0.29505
vn 0.90101 -0.38518 0.19954
vn 0.36258 -0.92491 0.11441
vn 0.11307 -0.99327 0.02504
vn 0.95730 0.19653 0.21201
vn 0.88007 0.38518 0.27770
vn 0.37120 0.92491 0.08221
vn 0.27577 0.95728 0.08702
vn 0.82683 -0.19653 0.52701
vn 0.81867 -0.38518 0.42594
vn 0.32061 -0.92491 0.20435
vn 0.25653 -0.95728 0.13347
vn 0.86981 0.19653 0.45255
vn 0.77821 0.38518 0.49602
vn 0.33728 0.92491 0.17548
vn 0.16331 0.98107 0.10409
vn 0.66225 -0.19653 0.72305
vn 0.68053 -0.38518 0.62331
vn 0.25680 -0.92491 0.28037
vn 0.14281 -0.98107 0.13081
vn 0.72305 0.19653 0.66225
vn 0.62331 0.38518 0.68053
vn 0.28037 0.92491 0.25680
vn 0.19531 0.95728 0.21324
vn 0.45255 -0.19653 0.86981
vn 0.49601 -0.38518 0.77821
vn 0.17548 -0.92490 0.33728
vn 0.15543 -0.95728 0.24385
vn 0.52701 0.19653 0.82683
vn 0.42594 0.38518 0.81866
vn 0.20435 0.92491 0.32061
vn 0.05345 0.99327 0.10274
vn 0.21201 -0.19653 0.95730
vn 0.27770 -0.38518 0.88007
vn 0.08221 -0.92490 0.37120
vn 0.04365 -0.98942 0.13833
vn 0.29505 0.19653 0.93505
vn 0.19954 0.38518 0.90101
vn 0.11441 0.92490 0.36258
vn 0.06253 0.95728 0.28233
vn -0.04299 -0.19653 0.97956
vn 0.04046 -0.38518 0.92195
vn -0.01667 -0.92491 0.37983
vn 0.01268 -0.95728 0.28889
vn 0.04299 0.19653 0.97956
vn -0.04046 0.38518 0.92195
vn 0.01667 0.92491 0.37983
vn -0.00849 0.98107 0.19348
vn -0.29505 -0.19653 0.93505
vn -0.19954 -0.38518 0.90101
vn -0.11441 -0.92490 0.36258
vn -0.04187 -0.98107 0.18908
vn -0.21201 0.19653 0.95730
vn -0.27770 0.38518 0.88007
vn -0.08221 0.92490 0.37120
vn -0.08702 0.95728 0.27577
vn -0.52701 -0.19653 0.82683
vn -0.42594 -0.38518 0.81866
vn -0.20435 -0.92491 0.32061
vn -0.13347 -0.95728 0.25653
vn -0.45255 0.19653 0.86981
vn -0.49601 0.38518 0.77821
vn -0.17548 0.92490 0.33728
vn -0.07796 0.98942 0.12232
vn -0.72305 -0.19653 0.66225
vn -0.62331 -0.38518 0.68053
vn -0.28037 -0.92491 0.25680
vn -0.07822 -0.99327 0.08540
vn -0.66225 0.19653 0.72305
vn -0.68053 0.38518 0.62331
vn -0.25680 0.92491 0.28037
vn -0.21324 0.95728 0.19531
vn -0.86981 -0.19653 0.45255
vn -0.77821 -0.38518 0.49601
vn -0.33728 -0.92491 0.17548
vn -0.24385 -0.95728 0.15543
vn -0.82683 0.19653 0.52701
vn -0.81866 0.38518 0.42594
vn -0.32061 0.92491 0.20435
vn -0.17180 0.98107 0.08939
vn -0.95730 -0.19653 0.21201
vn -0.88007 -0.38518 0.27770
vn -0.37120 -0.92491 0.08221
vn -0.18469 -0.98107 0.05828
vn -0.93505 0.19653 0.29505
vn -0.90101 0.38518 0.19954
vn -0.36258 0.92491 0.11441
vn -0.28233 0.95728 0.06253
vn -0.97956 -0.19653 -0.04299
vn -0.92195 -0.38518 0.04046
vn -0.37983 -0.92491 -0.01667
vn -0.28889 -0.95728 0.01268
vn -0.97956 0.19653 0.04299
vn -0.92195 0.38518 -0.04046
vn -0.37983 0.92491 0.01667
vn -0.11570 0.99327 -0.00508
vn -0.93505 -0.19653 -0.29505
vn -0.90101 -0.38518 -0.19954
vn -0.36258 -0.92491 -0.11441
vn -0.14162 -0.98942 -0.03136
vn -0.95730 0.19653 -0.21201
vn -0.88007 0.38518 -0.27770
vn -0.37120 0.92491 -0.08221
vn -0.27577 0.95728 -0.08702
vn -0.82683 -0.19653 -0.52701
vn -0.81866 -0.38518 -0.42594
vn -0.32061 -0.92491 -0.20435
vn -0.25653 -0.95728 -0.13347
vn -0.86981 0.19653 -0.45255
vn -0.77821 0.38518 -0.49602
vn -0.33728 0.92491 -0.17548
vn -0.16331 0.98107 -0.10409
vn -0.66225 -0.19653 -0.72305
vn -0.68053 -0.38518 -0.62331
vn -0.25680 -0.92491 -0.28037
vn -0.14281 -0.98107 -0.13081
vn -0.72305 0.19653 -0.66225
vn -0.62331 0.38518 -0.68053
vn -0.28037 0.92491 -0.25680
vn -0.19531 0.95728 -0.21324
vn -0.45255 -0.19653 -0.86981
vn -0.49601 -0.38518 -0.77821
vn -0.17548 -0.92491 -0.33728
vn -0.15543 -0.95728 -0.24385
vn -0.52701 0.19653 -0.82683
vn -0.42594 0.38518 -0.81866
vn -0.20435 0.92491 -0.32061
vn -0.06695 0.98942 -0.12868
vn -0.21201 -0.19653 -0.95730
vn -0.27770 -0.38518 -0.88007
vn -0.08221 -0.92491 -0.37120
vn -0.03485 -0.99327 -0.11044
vn -0.29505 0.19653 -0.93505
vn -0.19954 0.38518 -0.90101
vn -0.11441 0.92491 -0.36258
vn -0.06253 0.95728 -0.28233
f 1//1 4//2 5//3
f 1//1 5//3 7//4
f 2//5 6//6 5//7
f 2//5 5//7 4//8
f 3//9 7//10 5//7
f 3//9 5//7 6//6
f 8//11 11//12 12//13
f 8//11 12//13 14//14
f 9//15 13//16 12//17
f 9//15 12//17 11//18
f 10//19 14//20 12//17
f 10//19 12//17 13//16
f 15//21 18//22 19//23
f 15//21 19//23 21//24
f 16//25 20//26 19//27
f 16//25 19//27 18//28
f 17//29 21//30 19//27
f 17//29 19//27 20//26
f 22//31 25//32 26//33
f 22//31 26//33 28//34
f 23//35 27//36 26//37
f 23//35 26//37 25//38
f 24//39 28//40 26//37
f 24//39 26//37 27//36
f 29//41 32//42 33//43
f 29//41 33//43 35//44
f 30//45 34//46 33//47
f 30//45 33//47 32//48
f 31//49 35//50 33//47
f 31//49 33//47 34//46
f 36//51 39//52 40//53
f 36//51 40//53 42//54
f 37//55 41//56 40//57
f 37//55 40//57 39//58
f 38//59 42//60 40//57
f 38//59 40//57 41//56
f 43//61 46//62 47//63
f 43//61 47//63 49//64
f 44//65 48//66 47//67
f 44//65 47//67 46//68
f 45//69 49//70 47//67
f 45//69 47//67 48//66
f 50//71 53//72 54//73
f 50//71 54//73 56//74
f 51//75 55//76 54//77
f 51//75 54//77 53//78
f 52//79 56//80 54//77
f 52//79 54//77 55//76
f 57//81 60//82 61//83
f 57//81 61//83 63//84
f 58//85 62//86 61//87
f 58//85 61//87 60//88
f 59//89 63//90 61//87
f 59//89 61//87 62//86
f 64//91 67//92 68//93
f 64//91 68//93 70//94
f 65//95 69//96 68//97
f 65//95 68//97 67//98
f 66//99 70//100 68//97
f 66//99 68//97 69//96
f 71//101 74//102 75//103
f 71//101 75//103 77//104
f 72//105 76//106 75//107
f 72//105 75//107 74//108
f 73//109 77//110 75//107
f 73//109 75//107 76//106
f 78//111 81//112 82//113
f 78//111 82//113 84//114
f 79//115 83//116 82//117
f 79//115 82//117 81//118
f 80//119 84//120 82//117
f 80//119 82//117 83//116
f 85//121 88//122 89//123
f 85//121 89//123 91//124
f 86//125 90//126 89//127
f 86//125 89//127 88//128
f 87//129 91//130 89//127
f 87//129 89//127 90//126
f 92//131 95//132 96//133
f 92//131 96//133 98//134
f 93//135 97//136 96//137
f 93//135 96//137 95//138
f 94//139 98//140 96//137
f 94//139 96//137 97//136
f 99//141 102//142 103//143
f 99//141 103//143 105//144
f 100//145 104//146 103//147
f 100//145 103//147 102//148
f 101//149 105//150 103//147
f 101//149 103//147 104//146
f 106//151 109//152 110//153
f 106//151 110//153 112//154
f 107//155 111//156 110//157
f 107//155 110//157 109//158
f 108//159 112//160 110//157
f 108//159 110//157 111//156
f 3//9 16//25 18//28
f 3//9 18//28 7//10
f 7//4 18//22 15//21
f 7//4 15//21 1//1
f 24//39 9//15 11//18
f 24//39 11//18 28//40
f 28//34 11//12 8//11
f 28//34 8//11 22//31
f 2//5 10//19 13//16
f 2//5 13//16 6//6
f 6//6 13//16 9//15
f 6//6 9//15 3//9
f 23//35 17//29 20//26
f 23//35 20//26 27//36
f 27//36 20//26 16//25
f 27//36 16//25 24//39
f 17//29 30//45 32//48
f 17//29 32//48 21//30
f 21//24 32//42 29//41
f 21//24 29//41 15//21
f 38//59 23//35 25//38
f 38//59 25//38 42//60
f 42//54 25//32 22//31
f 42//54 22//31 36//51
f 37//55 31//49 34//46
f 37//55 34//46 41//56
f 41//56 34//46 30//45
f 41//56 30//45 38//59
f 31//49 44//65 46//68
f 31//49 46//68 35//50
f 35//44 46//62 43//61
f 35//44 43//61 29//41
f 52//79 37//55 39//58
f 52//79 39//58 56//80
f 56//74 39//52 36//51
f 56//74 36//51 50//71
f 51//75 45//69 48//66
f 51//75 48//66 55//76
f 55//76 48//66 44//65
f 55//76 44//65 52//79
f 45//69 58//85 60//88
f 45//69 60//88 49//70
f 49//64 60//82 57//81
f 49//64 57//81 43//61
f 66//99 51//75 53//78
f 66//99 53//78 70//100
f 70//94 53//72 50//71
f 70//94 50//71 64//91
f 65//95 59//89 62//86
f 65//95 62//86 69//96
f 69//96 62//86 58//85
f 69//96 58//85 66//99
f 59//89 72//105 74//108
f 59//89 74//108 63//90
f 63//84 74//102 71//101
f 63//84 71//101 57//81
f 80//119 65//95 67//98
f 80//119 67//98 84//120
f 84//114 67//92 64//91
f 84//114 64//91 78//111
f 79//115 73//109 76//106
f 79//115 76//106 83//116
f 83//116 76//106 72//105
f 83//116 72//105 80//119
f 73//109 86//125 88//128
f 73//109 88//128 77//110
f 77//104 88//122 85//121
f 77//104 85//121 71//101
f 94//139 79//115 81//118
f 94//139 81//118 98//140
f 98//134 81//112 78//111
f 98//134 78//111 92//131
f 93//135 87//129 90//126
f 93//135 90//126 97//136
f 97//136 90//126 86//125
f 97//136 86//125 94//139
f 87//129 100//145 102//148
f 87//129 102//148 91//130
f 91//124 102//142 99//141
f 91//124 99//141 85//121
f 108//159 93//135 95//138
f 108//159 95//138 112//160
f 112//154 95//132 92//131
f 112//154 92//131 106//151
f 107//155 101//149 104//146
f 107//155 104//146 111//156
f 111//156 104//146 100//145
f 111//156 100//145 108//159
f 101//149 2//5 4//8
f 101//149 4//8 105//150
f 105//144 4//2 1//1
f 105//144 1//1 99//141
f 10//19 107//155 109//158
f 10//19 109//158 14//20
f 14//14 109//152 106//151
f 14//14 106//151 8//11
f 99//141 1//1 15//21
f 15//21 29//41 43//61
f 43//61 57//81 71//101
f 71//101 85//121 99//141
f 99//141 15//21 43//61
f 43//61 71//101 99//141
f 3//9 9//15 24//39
f 3//9 24//39 16//25
f 101//149 107//155 10//19
f 101//149 10//19 2//5
f 36//51 22//31 8//11
f 8//11 106//151 92//131
f 92//131 78//111 64//91
f 64//91 50//71 36//51
f 36//51 8//11 92//131
f 92//131 64//91 36//51
f 17//29 23//35 38//59
f 17//29 38//59 30//45
f 31//49 37//55 52//79
f 31//49 52//79 44//65
f 45//69 51//75 66//99
f 45//69 66//99 58//85
f 59//89 65//95 80//119
f 59//89 80//119 72//105
f 73//109 79//115 94//139
f 73//109 94//139 86//125
f 87//129 93//135 108//159
f 87//129 108//159 100//145
f 114//161 120//162 121//163
f 114//161 121//163 115//164
f 115//165 121//166 119//167
f 115//165 119//167 113//168
f 123//169 117//170 118//171
f 123//169 118//171 124//172
f 124//173 118//174 116//175
f 124//173 116//175 122//176
f 120//162 126//177 127//178
f 120//162 127//178 121//163
f 121//166 127//179 125//180
f 121//166 125//180 119//167
f 129//181 123//169 124//172
f 129//181 124//172 130//182
f 130//183 124//173 122//176
f 130//183 122//176 128//184
f 126//177 132//185 133//186
f 126//177 133//186 127//178
f 127//179 133//187 131//188
f 127//179 131//188 125//180
f 135//189 129//181 130//182
f 135//189 130//182 136//190
f 136//191 130//183 128//184
f 136//191 128//184 134//192
f 132//185 138//193 139//194
f 132//185 139//194 133//186
f 133//187 139//195 137//196
f 133//187 137//196 131//188
f 141//197 135//189 136//190
f 141//197 136//190 142//198
f 142//199 136//191 134//192
f 142//199 134//192 140//200
f 138//193 144//201 145//202
f 138//193 145//202 139//194
f 139//195 145//203 143//204
f 139//195 143//204 137//196
f 147//205 141//197 142//198
f 147//205 142//198 148//206
f 148//207 142//199 140//200
f 148//207 140//200 146//208
f 144//201 150//209 151//210
f 144//201 151//210 145//202
f 145//203 151//211 149//212
f 145//203 149//212 143//204
f 153//213 147//205 148//206
f 153//213 148//206 154//214
f 154//215 148//207 146//208
f 154//215 146//208 152//216
f 150//209 156//217 157//218
f 150//209 157//218 151//210
f 151//211 157//219 155//220
f 151//211 155//220 149//212
f 159//221 153//213 154//214
f 159//221 154//214 160//222
f 160//223 154//215 152//216
f 160//223 152//216 158//224
f 156//217 162//225 163//226
f 156//217 163//226 157//218
f 157//219 163//227 161//228
f 157//219 161//228 155//220
f 165//229 159//221 160//222
f 165//229 160//222 166//230
f 166//231 160//223 158//224
f 166//231 158//224 164//232
f 162//225 168//233 169//234
f 162//225 169//234 163//226
f 163//227 169//235 167//236
f 163//227 167//236 161//228
f 171//237 165//229 166//230
f 171//237 166//230 172//238
f 172//239 166//231 164//232
f 172//239 164//232 170//240
f 168//233 174//241 175//242
f 168//233 175//242 169//234
f 169//235 175//243 173//244
f 169//235 173//244 167//236
f 177//245 171//237 172//238
f 177//245 172//238 178//246
f 178//247 172//239 170//240
f 178//247 170//240 176//248
f 174//241 180//249 181//250
f 174//241 181//250 175//242
f 175//243 181//251 179//252
f 175//243 179//252 173//244
f 183//253 177//245 178//246
f 183//253 178//246 184//254
f 184//255 178//247 176//248
f 184//255 176//248 182//256
f 180//249 186//257 187//258
f 180//249 187//258 181//250
f 181//251 187//259 185//260
f 181//251 185//260 179//252
f 189//261 183//253 184//254
f 189//261 184//254 190//262
f 190//263 184//255 182//256
f 190//263 182//256 188//264
f 186//257 192//265 193//266
f 186//257 193//266 187//258
f 187//259 193//267 191//268
f 187//259 191//268 185//260
f 195//269 189//261 190//262
f 195//269 190//262 196//270
f 196//271 190//263 188//264
f 196//271 188//264 194//272
f 192//265 198//273 199//274
f 192//265 199//274 193//266
f 193//267 199//275 197//276
f 193//267 197//276 191//268
f 201//277 195//269 196//270
f 201//277 196//270 202//278
f 202//279 196//271 194//272
f 202//279 194//272 200//280
f 198//273 204//281 205//282
f 198//273 205//282 199//274
f 199//275 205//283 203//284
f 199//275 203//284 197//276
f 207//285 201//277 202//278
f 207//285 202//278 208//286
f 208//287 202//279 200//280
f 208//287 200//280 206//288
f 204//281 210//289 211//290
f 204//281 211//290 205//282
f 205//283 211//291 209//292
f 205//283 209//292 203//284
f 213//293 207//285 208//286
f 213//293 208//286 214//294
f 214//295 208//287 206//288
f 214//295 206//288 212//296
f 210//289 216//297 217//298
f 210//289 217//298 211//290
f 211//291 217//299 215//300
f 211//291 215//300 209//292
f 219//301 213//293 214//294
f 219//301 214//294 220//302
f 220//303 214//295 212//296
f 220//303 212//296 218//304
f 216//297 222//305 223//306
f 216//297 223//306 217//298
f 217//299 223//307 221//308
f 217//299 221//308 215//300
f 225//309 219//301 220//302
f 225//309 220//302 226//310
f 226//311 220//303 218//304
f 226//311 218//304 224//312
f 222//305 228//313 229//314
f 222//305 229//314 223//306
f 223//307 229//315 227//316
f 223//307 227//316 221//308
f 231//317 225//309 226//310
f 231//317 226//310 232//318
f 232//319 226//311 224//312
f 232//319 224//312 230//320
f 228//313 234//321 235//322
f 228//313 235//322 229//314
f 229//315 235//323 233//324
f 229//315 233//324 227//316
f 237//325 231//317 232//318
f 237//325 232//318 238//326
f 238//327 232//319 230//320
f 238//327 230//320 236//328
f 234//321 240//329 241//330
f 234//321 241//330 235//322
f 235//323 241//331 239//332
f 235//323 239//332 233//324
f 243//333 237//325 238//326
f 243//333 238//326 244//334
f 244//335 238//327 236//328
f 244//335 236//328 242//336
f 240//329 246//337 247//338
f 240//329 247//338 241//330
f 241//331 247//339 245//340
f 241//331 245//340 239//332
f 249//341 243//333 244//334
f 249//341 244//334 250//342
f 250//343 244//335 242//336
f 250//343 242//336 248//344
f 246//337 252//345 253//346
f 246//337 253//346 247//338
f 247//339 253//347 251//348
f 247//339 251//348 245//340
f 255//349 249//341 250//342
f 255//349 250//342 256//350
f 256//351 250//343 248//344
f 256//351 248//344 254//352
f 252//345 114//161 115//164
f 252//345 115//164 253//346
f 253//347 115//165 113//168
f 253//347 113//168 251//348
f 117//170 255//349 256//350
f 117//170 256//350 118//171
f 118//174 256//351 254//352
f 118//174 254//352 116//175
f 251//348 113//168 119//167
f 119//167 125//180 131//188
f 131//188 137//196 143//204
f 143//204 149//212 155//220
f 155//220 161//228 167//236
f 167//236 173//244 179//252
f 179//252 185//260 191//268
f 191//268 197//276 203//284
f 203//284 209//292 215//300
f 215//300 221//308 227//316
f 227//316 233//324 239//332
f 239//332 245//340 251//348
f 251//348 119//167 131//188
f 131//188 143//204 155//220
f 155//220 167//236 179//252
f 179//252 191//268 203//284
f 203//284 215//300 227//316
f 227//316 239//332 251//348
f 251//348 131//188 155//220
f 155//220 179//252 203//284
f 203//284 227//316 251//348
f 155//220 203//284 251//348
f 114//161 117//170 123//169
f 114//161 123//169 120//162
f 252//345 255//349 117//170
f 252//345 117//170 114//161
f 128//184 122//176 116//175
f 116//175 254//352 248//344
f 248//344 242//336 236//328
f 236//328 230//320 224//312
f 224//312 218//304 212//296
f 212//296 206//288 200//280
f 200//280 194//272 188//264
f 188//264 182//256 176//248
f 176//248 170//240 164//232
f 164//232 158//224 152//216
f 152//216 146//208 140//200
f 140//200 134//192 128//184
f 128//184 116//175 248//344
f 248//344 236//328 224//312
f 224//312 212//296 200//280
f 200//280 188//264 176//248
f 176//248 164//232 152//216
f 152//216 140//200 128//184
f 128//184 248//344 224//312
f 224//312 200//280 176//248
f 176//248 152//216 128//184
f 224//312 176//248 128//184
f 120//162 123//169 129//181
f 120//162 129//181 126//177
f 126//177 129//181 135//189
f 126//177 135//189 132//185
f 132//185 135//189 141//197
f 132//185 141//197 138//193
f 138//193 141//197 147//205
f 138//193 147//205 144//201
f 144//201 147//205 153//213
f 144//201 153//213 150//209
f 150//209 153//213 159//221
f 150//209 159//221 156//217
f 156//217 159//221 165//229
f 156//217 165//229 162//225
f 162//225 165//229 171//237
f 162//225 171//237 168//233
f 168//233 171//237 177//245
f 168//233 177//245 174//241
f 174//241 177//245 183//253
f 174//241 183//253 180//249
f 180//249 183//253 189//261
f 180//249 189//261 186//257
f 186//257 189//261 195//269
f 186//257 195//269 192//265
f 192//265 195//269 201//277
f 192//265 201//277 198//273
f 198//273 201//277 207//285
f 198//273 207//285 204//281
f 204//281 207//285 213//293
f 204//281 213//293 210//289
f 210//289 213//293 219//301
f 210//289 219//301 216//297
f 216//297 219//301 225//309
f 216//297 225//309 222//305
f 222//305 225//309 231//317
f 222//305 231//317 228//313
f 228//313 231//317 237//325
f 228//313 237//325 234//321
f 234//321 237//325 243//333
f 234//321 243//333 240//329
f 240//329 243//333 249//341
f 240//329 249//341 246//337
f 246//337 249//341 255//349
f 246//337 255//349 252//345
