# tibia_shell -- Spyder-v0 visual shell, generated by make_spyder_mesh.py
# visual only: MuJoCo collides the capsules in spyder12.xml, not this mesh
v -0.000000 0.079506 0.000000
v 0.007831 0.083197 -0.002285
v -0.001688 0.083197 -0.007981
v 0.003719 0.082589 0.000184
v 0.001306 0.083633 -0.002184
v 0.003112 0.084142 -0.005202
v -0.001920 0.082589 -0.003190
v 0.248902 0.038506 -0.416000
v 0.241071 0.043209 -0.413715
v 0.250590 0.043209 -0.408019
v 0.245246 0.041916 -0.416146
v 0.247612 0.043073 -0.413845
v 0.245871 0.044153 -0.410936
v 0.250758 0.041916 -0.412848
v -0.048243 0.056219 -0.028865
v -0.044046 0.062751 -0.033324
v -0.050777 0.054907 -0.037352
v -0.047221 0.060722 -0.030295
v -0.049441 0.059137 -0.032547
v -0.047944 0.059497 -0.035750
v -0.051208 0.056076 -0.032680
v 0.225537 0.027228 -0.429980
v 0.216247 0.026631 -0.428568
v 0.222977 0.034475 -0.424540
v 0.220619 0.027368 -0.430880
v 0.221476 0.030457 -0.429483
v 0.219080 0.031221 -0.426966
v 0.224517 0.031910 -0.428548
v -0.068226 0.000000 -0.040821
v -0.068322 0.005546 -0.047849
v -0.068322 -0.005546 -0.047849
v -0.069972 0.003286 -0.043907
v -0.070461 0.000000 -0.045124
v -0.069092 0.000000 -0.048403
v -0.069972 -0.003286 -0.043907
v 0.215859 0.000000 -0.435770
v 0.208752 -0.005546 -0.433052
v 0.208752 0.005546 -0.433052
v 0.212033 -0.003212 -0.436018
v 0.210650 -0.000000 -0.435960
v 0.207982 0.000000 -0.433605
v 0.212033 0.003212 -0.436018
v -0.048243 -0.056219 -0.028865
v -0.050777 -0.054907 -0.037352
v -0.044046 -0.062751 -0.033324
v -0.051208 -0.056076 -0.032680
v -0.049441 -0.059137 -0.032547
v -0.047944 -0.059497 -0.035750
v -0.047221 -0.060722 -0.030295
v 0.225537 -0.027228 -0.429980
v 0.222977 -0.034475 -0.424540
v 0.216247 -0.026631 -0.428568
v 0.224517 -0.031910 -0.428548
v 0.221476 -0.030457 -0.429483
v 0.219080 -0.031221 -0.426966
v 0.220619 -0.027368 -0.430880
v -0.000000 -0.079506 0.000000
v -0.001688 -0.083197 -0.007981
v 0.007831 -0.083197 -0.002285
v -0.001920 -0.082589 -0.003190
v 0.001306 -0.083633 -0.002184
v 0.003112 -0.084142 -0.005202
v 0.003719 -0.082589 0.000184
v 0.248902 -0.038506 -0.416000
v 0.250590 -0.043209 -0.408019
v 0.241071 -0.043209 -0.413715
v 0.250758 -0.041916 -0.412848
v 0.247612 -0.043073 -0.413845
v 0.245871 -0.044153 -0.410936
v 0.245246 -0.041916 -0.416146
v 0.048243 -0.056219 0.028865
v 0.050189 -0.062751 0.023058
v 0.056919 -0.054907 0.027085
v 0.049020 -0.060722 0.027288
v 0.052054 -0.059137 0.028180
v 0.054168 -0.059497 0.025346
v 0.053007 -0.056076 0.029674
v 0.272266 -0.027228 -0.402020
v 0.275414 -0.026631 -0.393166
v 0.268684 -0.034475 -0.397193
v 0.275385 -0.027368 -0.398113
v 0.273748 -0.030457 -0.398207
v 0.272663 -0.031221 -0.394905
v 0.271487 -0.031910 -0.400445
v 0.068226 -0.000000 0.040821
v 0.074465 -0.005546 0.037583
v 0.074465 0.005546 0.037583
v 0.071771 -0.003286 0.040901
v 0.073074 -0.000000 0.040756
v 0.075317 0.000000 0.038000
v 0.071771 0.003286 0.040901
v 0.281944 0.000000 -0.396230
v 0.282909 0.005546 -0.388682
v 0.282909 -0.005546 -0.388682
v 0.283971 0.003212 -0.392976
v 0.284574 0.000000 -0.391730
v 0.283761 0.000000 -0.388266
v 0.283971 -0.003212 -0.392976
v 0.048243 0.056219 0.028865
v 0.056919 0.054907 0.027085
v 0.050189 0.062751 0.023058
v 0.053007 0.056076 0.029674
v 0.052054 0.059137 0.028180
v 0.054168 0.059497 0.025346
v 0.049020 0.060722 0.027288
v 0.272266 0.027228 -0.402020
v 0.268684 0.034475 -0.397193
v 0.275414 0.026631 -0.393166
v 0.271487 0.031910 -0.400445
v 0.273748 0.030457 -0.398207
v 0.272663 0.031221 -0.394905
v 0.275385 0.027368 -0.398113
v 0.248902 0.038506 -0.416000
v 0.256737 0.042951 -0.418299
v 0.247223 0.042951 -0.423992
v 0.252574 0.041833 -0.415849
v 0.250198 0.042962 -0.418168
v 0.251960 0.043901 -0.421111
v 0.247032 0.041833 -0.419165
v 0.311127 0.043506 -0.520000
v 0.303291 0.047456 -0.517701
v 0.312806 0.047456 -0.512008
v 0.307423 0.046673 -0.520170
v 0.309822 0.047747 -0.517819
v 0.308028 0.048406 -0.514821
v 0.313028 0.046673 -0.516816
v 0.225537 0.027228 -0.429980
v 0.229282 0.034291 -0.434726
v 0.222554 0.026451 -0.438751
v 0.226379 0.031864 -0.431522
v 0.224130 0.030379 -0.433765
v 0.225322 0.031042 -0.437050
v 0.222460 0.027297 -0.433867
v 0.284728 0.030763 -0.535795
v 0.275889 0.029636 -0.534097
v 0.282617 0.037477 -0.530071
v 0.279923 0.030693 -0.536623
v 0.280850 0.033762 -0.535153
v 0.278656 0.034228 -0.532395
v 0.283886 0.035312 -0.534252
v 0.215859 0.000000 -0.435770
v 0.215123 0.005544 -0.443198
v 0.215123 -0.005544 -0.443198
v 0.213905 0.003229 -0.438985
v 0.213332 -0.000000 -0.440226
v 0.214288 0.000000 -0.443652
v 0.213905 -0.003229 -0.438985
v 0.273794 0.000000 -0.542337
v 0.267325 -0.005544 -0.539221
v 0.267325 0.005544 -0.539221
v 0.270174 -0.003266 -0.542457
v 0.268849 0.000000 -0.542333
v 0.266490 0.000000 -0.539675
v 0.270174 0.003266 -0.542457
v 0.225537 -0.027228 -0.429980
v 0.222554 -0.026451 -0.438751
v 0.229282 -0.034291 -0.434726
v 0.222460 -0.027297 -0.433867
v 0.224130 -0.030379 -0.433765
v 0.225322 -0.031042 -0.437050
v 0.226379 -0.031864 -0.431522
v 0.284728 -0.030763 -0.535795
v 0.282617 -0.037477 -0.530071
v 0.275889 -0.029636 -0.534097
v 0.283886 -0.035312 -0.534252
v 0.280850 -0.033762 -0.535153
v 0.278656 -0.034228 -0.532395
v 0.279923 -0.030693 -0.536623
v 0.248902 -0.038506 -0.416000
v 0.247223 -0.042951 -0.423992
v 0.256737 -0.042951 -0.418299
v 0.247032 -0.041833 -0.419165
v 0.250198 -0.042962 -0.418168
v 0.251960 -0.043901 -0.421111
v 0.252574 -0.041833 -0.415849
v 0.311127 -0.043506 -0.520000
v 0.312806 -0.047456 -0.512008
v 0.303291 -0.047456 -0.517701
v 0.313028 -0.046673 -0.516816
v 0.309822 -0.047747 -0.517819
v 0.308028 -0.048406 -0.514821
v 0.307423 -0.046673 -0.520170
v 0.272266 -0.027228 -0.402020
v 0.274678 -0.034291 -0.407564
v 0.281406 -0.026451 -0.403539
v 0.273227 -0.031864 -0.403492
v 0.276267 -0.030379 -0.402570
v 0.278598 -0.031042 -0.405173
v 0.277146 -0.027297 -0.401147
v 0.337526 -0.030763 -0.504205
v 0.340209 -0.029636 -0.495613
v 0.333480 -0.037477 -0.499639
v 0.340527 -0.030693 -0.500363
v 0.338794 -0.033762 -0.500484
v 0.337401 -0.034228 -0.497247
v 0.336564 -0.035312 -0.502734
v 0.281944 0.000000 -0.396230
v 0.288837 -0.005544 -0.399092
v 0.288837 0.005544 -0.399092
v 0.285701 -0.003229 -0.396029
v 0.287065 0.000000 -0.396109
v 0.289632 0.000000 -0.398571
v 0.285701 0.003229 -0.396029
v 0.348460 -0.000000 -0.497663
v 0.348772 0.005544 -0.490489
v 0.348772 -0.005544 -0.490489
v 0.350276 0.003266 -0.494530
v 0.350794 -0.000000 -0.493304
v 0.349567 0.000000 -0.489968
v 0.350276 -0.003266 -0.494530
v 0.272266 0.027228 -0.402020
v 0.281406 0.026451 -0.403539
v 0.274678 0.034291 -0.407564
v 0.277146 0.027297 -0.401147
v 0.276267 0.030379 -0.402570
v 0.278598 0.031042 -0.405173
v 0.273227 0.031864 -0.403492
v 0.337526 0.030763 -0.504205
v 0.333480 0.037477 -0.499639
v 0.340209 0.029636 -0.495613
v 0.336564 0.035312 -0.502734
v 0.338794 0.033762 -0.500484
v 0.337401 0.034228 -0.497247
v 0.340527 0.030693 -0.500363
vn -0.45600 0.36429 0.81201
vn -0.41000 0.44727 0.79489
vn -0.43704 0.52485 0.73044
vn -0.53930 0.41968 0.73009
vn 0.17429 0.96442 0.19877
vn -0.03299 0.99939 -0.01181
vn -0.10545 0.97868 0.17624
vn 0.12100 0.89816 0.42269
vn -0.31751 0.94674 -0.05362
vn -0.40638 0.90868 0.09568
vn 0.48066 0.25555 -0.83885
vn 0.41937 0.41511 -0.80735
vn 0.44990 0.48184 -0.75194
vn 0.54259 0.39160 -0.74313
vn -0.09101 0.94033 -0.32787
vn 0.11831 0.98432 -0.13080
vn 0.18269 0.93456 -0.30533
vn -0.04179 0.85061 -0.52414
vn 0.38710 0.91879 -0.07729
vn 0.46113 0.86102 -0.21448
vn -0.64880 0.20834 0.73189
vn -0.69555 0.35607 0.62404
vn -0.75551 0.37112 0.53989
vn -0.77185 0.23458 0.59095
vn -0.47416 0.85987 -0.18921
vn -0.63077 0.68236 -0.36948
vn -0.69930 0.69203 -0.17907
vn -0.50464 0.86197 0.04836
vn -0.81658 0.45732 -0.35223
vn -0.88245 0.43069 -0.18917
vn 0.26290 0.22229 -0.93887
vn 0.18122 0.25489 -0.94984
vn 0.15752 0.34071 -0.92688
vn 0.28385 0.33634 -0.89795
vn -0.59965 0.49065 -0.63220
vn -0.48760 0.72032 -0.49333
vn -0.38439 0.66083 -0.64463
vn -0.48127 0.38582 -0.78709
vn -0.24394 0.85651 -0.45485
vn -0.13311 0.81077 -0.57002
vn -0.79058 0.02561 0.61182
vn -0.84212 0.05629 0.53634
vn -0.88742 0.00000 0.46096
vn -0.82398 -0.08793 0.55976
vn -0.86923 0.25162 -0.42559
vn -0.86109 -0.03438 -0.50728
vn -0.94528 -0.00000 -0.32625
vn -0.92508 0.32085 -0.20320
vn -0.87250 -0.30000 -0.38568
vn -0.92905 -0.29960 -0.21705
vn 0.30490 -0.01621 -0.95225
vn 0.11004 -0.05465 -0.99242
vn 0.03642 -0.00000 -0.99934
vn 0.13441 0.08407 -0.98735
vn -0.68646 -0.24644 -0.68414
vn -0.75586 0.03437 -0.65384
vn -0.61929 0.00000 -0.78517
vn -0.51001 -0.30497 -0.80429
vn -0.65235 0.29250 -0.69921
vn -0.52281 0.28559 -0.80319
vn -0.65674 -0.16095 0.73674
vn -0.76386 -0.27647 0.58317
vn -0.75550 -0.37112 0.53989
vn -0.66514 -0.35893 0.65480
vn -0.77951 -0.50403 -0.37191
vn -0.58905 -0.73098 -0.34452
vn -0.69930 -0.69203 -0.17907
vn -0.89402 -0.40822 -0.18462
vn -0.45251 -0.88157 -0.13440
vn -0.51887 -0.85439 0.02837
vn 0.29221 -0.25644 -0.92133
vn 0.24754 -0.33217 -0.91016
vn 0.15752 -0.34071 -0.92688
vn 0.18183 -0.21746 -0.95898
vn -0.30058 -0.83917 -0.45326
vn -0.52931 -0.67172 -0.51829
vn -0.38439 -0.66083 -0.64463
vn -0.11117 -0.81712 -0.56565
vn -0.59890 -0.44286 -0.66723
vn -0.47969 -0.40690 -0.77739
vn -0.49995 -0.36429 0.78571
vn -0.50661 -0.44727 0.73709
vn -0.43703 -0.52485 0.73044
vn -0.38839 -0.41968 0.82038
vn -0.25755 -0.96442 -0.05961
vn 0.02601 -0.99939 0.02349
vn -0.10545 -0.97868 0.17624
vn -0.42967 -0.89816 0.09321
vn 0.19736 -0.94674 0.25443
vn 0.10781 -0.90868 0.40333
vn 0.51194 -0.25556 -0.82013
vn 0.51316 -0.41511 -0.75123
vn 0.44990 -0.48184 -0.75194
vn 0.39832 -0.39160 -0.82945
vn 0.33195 -0.94033 -0.07481
vn 0.05933 -0.98432 -0.16609
vn 0.18269 -0.93456 -0.30533
vn 0.48162 -0.85061 -0.21097
vn -0.11490 -0.91880 -0.37764
vn -0.02901 -0.86102 -0.50774
vn -0.33820 -0.20834 0.91772
vn -0.22106 -0.35607 0.90793
vn -0.11857 -0.37112 0.92098
vn -0.15583 -0.23458 0.95953
vn 0.39089 -0.85987 0.32837
vn 0.62378 -0.68236 0.38115
vn 0.48840 -0.69203 0.53156
vn 0.19596 -0.86197 0.46754
vn 0.69643 -0.45732 0.55304
vn 0.58389 -0.43069 0.68818
vn 0.70302 -0.22229 -0.67553
vn 0.75131 -0.25489 -0.60874
vn 0.74227 -0.34071 -0.57701
vn 0.65706 -0.33635 -0.67464
vn 0.84058 -0.49065 0.22952
vn 0.66524 -0.72032 0.19644
vn 0.74977 -0.66083 0.03396
vn 0.92111 -0.38582 0.05198
vn 0.51613 -0.85651 -0.00008
vn 0.56523 -0.81077 -0.15220
vn -0.16537 -0.02561 0.98590
vn -0.07449 -0.05629 0.99563
vn 0.01335 -0.00000 0.99991
vn -0.10370 0.08793 0.99071
vn 0.78597 -0.25162 0.56475
vn 0.85411 0.03438 0.51896
vn 0.73438 0.00000 0.67874
vn 0.61640 -0.32085 0.71910
vn 0.75235 0.30000 0.58649
vn 0.63048 0.29960 0.71605
vn 0.69496 0.01621 -0.71887
vn 0.82248 0.05465 -0.56616
vn 0.86338 0.00000 -0.50455
vn 0.80650 -0.08406 -0.58523
vn 0.92739 0.24644 0.28146
vn 0.93349 -0.03437 0.35694
vn 0.98466 -0.00000 0.17451
vn 0.94985 0.30497 0.06917
vn 0.92454 -0.29249 0.24428
vn 0.95493 -0.28559 0.08097
vn -0.33873 0.16095 0.92702
vn -0.15275 0.27647 0.94881
vn -0.11857 0.37112 0.92098
vn -0.26254 0.35893 0.89568
vn 0.69625 0.50403 0.51107
vn 0.58206 0.73098 0.35619
vn 0.48840 0.69203 0.53156
vn 0.58535 0.40822 0.70052
vn 0.33236 0.88157 0.33521
vn 0.22030 0.85438 0.47063
vn 0.67372 0.25644 -0.69307
vn 0.68499 0.33217 -0.64842
vn 0.74227 0.34071 -0.57701
vn 0.75908 0.21746 -0.61360
vn 0.54151 0.83917 0.05058
vn 0.70695 0.67172 0.22139
vn 0.74977 0.66083 0.03396
vn 0.55100 0.81712 -0.16946
vn 0.87109 0.44286 0.21230
vn 0.91181 0.40689 0.05517
vn -0.46059 0.34544 0.81764
vn -0.41689 0.42371 0.80416
vn -0.44667 0.49311 0.74655
vn -0.54180 0.39919 0.73966
vn 0.11240 0.94862 0.29577
vn -0.09686 0.99078 0.09476
vn -0.16366 0.94784 0.27353
vn 0.06182 0.86409 0.49953
vn -0.37024 0.92788 0.04420
vn -0.44820 0.87459 0.18496
vn 0.47781 0.27050 -0.83578
vn 0.41231 0.43943 -0.79806
vn 0.44038 0.51413 -0.73603
vn 0.54019 0.41292 -0.73328
vn -0.15312 0.96043 -0.23265
vn 0.05513 0.99817 -0.02501
vn 0.12590 0.96947 -0.21043
vn -0.10053 0.88737 -0.44997
vn 0.33623 0.94157 0.01980
vn 0.42146 0.89792 -0.12690
vn -0.64260 0.19756 0.74030
vn -0.68785 0.33859 0.64204
vn -0.74588 0.34868 0.56752
vn -0.76262 0.22205 0.60754
vn -0.52562 0.84636 -0.08597
vn -0.68939 0.67621 -0.25976
vn -0.73879 0.67022 -0.07059
vn -0.54030 0.82987 0.13927
vn -0.85912 0.44750 -0.24831
vn -0.90609 0.41362 -0.08901
vn 0.24663 0.23531 -0.94011
vn 0.15972 0.27117 -0.94919
vn 0.12841 0.36354 -0.92268
vn 0.26775 0.35354 -0.89628
vn -0.67285 0.50175 -0.54362
vn -0.55921 0.73018 -0.39258
vn -0.46236 0.68552 -0.56240
vn -0.55923 0.40310 -0.72441
vn -0.31018 0.87700 -0.36696
vn -0.19791 0.84459 -0.49749
vn -0.77809 0.02455 0.62767
vn -0.82780 0.05514 0.55831
vn -0.86982 -0.00000 0.49337
vn -0.81127 -0.08517 0.57843
vn -0.91472 0.24831 -0.31878
vn -0.91750 -0.03447 -0.39624
vn -0.97702 0.00000 -0.21313
vn -0.94529 0.30952 -0.10305
vn -0.91332 -0.29502 -0.28074
vn -0.95015 -0.28965 -0.11537
vn 0.29184 -0.01698 -0.95632
vn 0.08323 -0.05594 -0.99496
vn -0.00081 0.00000 -1.00000
vn 0.11114 0.08706 -0.98998
vn -0.76203 -0.25085 -0.59698
vn -0.83100 0.03447 -0.55520
vn -0.70603 -0.00000 -0.70818
vn -0.58973 -0.31730 -0.74266
vn -0.72808 0.29869 -0.61699
vn -0.60352 0.29651 -0.74017
vn -0.65013 -0.15237 0.74439
vn -0.75476 -0.26062 0.60201
vn -0.74588 -0.34868 0.56752
vn -0.65926 -0.34249 0.66938
vn -0.82697 -0.49519 -0.26628
vn -0.64756 -0.72496 -0.23473
vn -0.73879 -0.67022 -0.07059
vn -0.91592 -0.39214 -0.08548
vn -0.50109 -0.86472 -0.03409
vn -0.55458 -0.82324 0.12131
vn 0.27730 -0.27104 -0.92176
vn 0.22762 -0.35028 -0.90857
vn 0.12841 -0.36354 -0.92268
vn 0.16209 -0.23042 -0.95950
vn -0.36843 -0.85650 -0.36148
vn -0.60104 -0.68144 -0.41761
vn -0.46236 -0.68552 -0.56240
vn -0.17416 -0.85183 -0.49402
vn -0.67267 -0.45458 -0.58384
vn -0.55775 -0.42526 -0.71279
vn -0.50273 -0.34544 0.79242
vn -0.51152 -0.42370 0.74754
vn -0.44667 -0.49311 0.74655
vn -0.39563 -0.39919 0.82712
vn -0.31377 -0.94862 0.04078
vn -0.03771 -0.99078 0.13016
vn -0.16366 -0.94784 0.27353
vn -0.46940 -0.86409 0.18169
vn 0.13609 -0.92788 0.34715
vn 0.04891 -0.87459 0.48239
vn 0.51058 -0.27050 -0.81617
vn 0.50831 -0.43943 -0.74062
vn 0.44038 -0.51413 -0.73603
vn 0.39077 -0.41292 -0.82268
vn 0.27740 -0.96043 0.02494
vn -0.00402 -0.99817 -0.06041
vn 0.12590 -0.96947 -0.21043
vn 0.44403 -0.88737 -0.12414
vn -0.17641 -0.94157 -0.28692
vn -0.08743 -0.89792 -0.43138
vn -0.34854 -0.19756 0.91624
vn -0.24057 -0.33859 0.90966
vn -0.14747 -0.34868 0.92557
vn -0.17482 -0.22204 0.95924
vn 0.32426 -0.84636 0.42253
vn 0.55482 -0.67621 0.48468
vn 0.41148 -0.67022 0.61765
vn 0.13271 -0.82987 0.54195
vn 0.62497 -0.44750 0.63965
vn 0.50681 -0.41361 0.75635
vn 0.71181 -0.23530 -0.66179
vn 0.76089 -0.27117 -0.58950
vn 0.75235 -0.36354 -0.54937
vn 0.66321 -0.35354 -0.65967
vn 0.79713 -0.50175 0.33590
vn 0.61031 -0.73018 0.30716
vn 0.71416 -0.68552 0.14154
vn 0.90273 -0.40310 0.15031
vn 0.47000 -0.87700 0.09984
vn 0.53195 -0.84459 -0.06080
vn -0.18524 -0.02456 0.98239
vn -0.10062 -0.05514 0.99340
vn -0.02353 0.00000 0.99972
vn -0.12616 0.08517 0.98835
vn 0.71336 -0.24831 0.65534
vn 0.78293 0.03447 0.62116
vn 0.64971 -0.00000 0.76018
vn 0.53771 -0.30952 0.78426
vn 0.67917 0.29502 0.67208
vn 0.55087 0.28965 0.78272
vn 0.70472 0.01698 -0.70928
vn 0.83740 0.05594 -0.54372
vn 0.88157 -0.00000 -0.47206
vn 0.81982 -0.08706 -0.56597
vn 0.88631 0.25085 0.38926
vn 0.88211 -0.03447 0.46979
vn 0.95783 0.00000 0.28733
vn 0.93323 0.31730 0.16855
vn 0.88790 -0.29869 0.34988
vn 0.93755 -0.29651 0.18188
vn -0.34859 0.15237 0.92481
vn -0.17366 0.26061 0.94970
vn -0.14747 0.34868 0.92557
vn -0.27818 0.34249 0.89739
vn 0.62560 0.49519 0.60283
vn 0.51299 0.72496 0.45965
vn 0.41148 0.67022 0.61765
vn 0.50834 0.39214 0.76669
vn 0.26694 0.86472 0.42544
vn 0.15529 0.82324 0.54604
vn 0.68114 0.27104 -0.68013
vn 0.69301 0.35028 -0.63011
vn 0.75235 0.36354 -0.54937
vn 0.76886 0.23042 -0.59646
vn 0.49271 0.85650 0.15376
vn 0.65214 0.68144 0.33219
vn 0.71416 0.68552 0.14154
vn 0.51766 0.85183 -0.08009
vn 0.83249 0.45458 0.31672
vn 0.89179 0.42526 0.15450
f 1//1 4//2 5//3
f 1//1 5//3 7//4
f 2//5 6//6 5//7
f 2//5 5//7 4//8
f 3//9 7//10 5//7
f 3//9 5//7 6//6
f 8//11 11//12 12//13
f 8//11 12//13 14//14
f 9//15 13//16 12//17
f 9//15 12//17 11//18
f 10//19 14//20 12//17
f 10//19 12//17 13//16
f 15//21 18//22 19//23
f 15//21 19//23 21//24
f 16//25 20//26 19//27
f 16//25 19//27 18//28
f 17//29 21//30 19//27
f 17//29 19//27 20//26
f 22//31 25//32 26//33
f 22//31 26//33 28//34
f 23//35 27//36 26//37
f 23//35 26//37 25//38
f 24//39 28//40 26//37
f 24//39 26//37 27//36
f 29//41 32//42 33//43
f 29//41 33//43 35//44
f 30//45 34//46 33//47
f 30//45 33//47 32//48
f 31//49 35//50 33//47
f 31//49 33//47 34//46
f 36//51 39//52 40//53
f 36//51 40//53 42//54
f 37//55 41//56 40//57
f 37//55 40//57 39//58
f 38//59 42//60 40//57
f 38//59 40//57 41//56
f 43//61 46//62 47//63
f 43//61 47//63 49//64
f 44//65 48//66 47//67
f 44//65 47//67 46//68
f 45//69 49//70 47//67
f 45//69 47//67 48//66
f 50//71 53//72 54//73
f 50//71 54//73 56//74
f 51//75 55//76 54//77
f 51//75 54//77 53//78
f 52//79 56//80 54//77
f 52//79 54//77 55//76
f 57//81 60//82 61//83
f 57//81 61//83 63//84
f 58//85 62//86 61//87
f 58//85 61//87 60//88
f 59//89 63//90 61//87
f 59//89 61//87 62//86
f 64//91 67//92 68//93
f 64//91 68//93 70//94
f 65//95 69//96 68//97
f 65//95 68//97 67//98
f 66//99 70//100 68//97
f 66//99 68//97 69//96
f 71//101 74//102 75//103
f 71//101 75//103 77//104
f 72//105 76//106 75//107
f 72//105 75//107 74//108
f 73//109 77//110 75//107
f 73//109 75//107 76//106
f 78//111 81//112 82//113
f 78//111 82//113 84//114
f 79//115 83//116 82//117
f 79//115 82//117 81//118
f 80//119 84//120 82//117
f 80//119 82//117 83//116
f 85//121 88//122 89//123
f 85//121 89//123 91//124
f 86//125 90//126 89//127
f 86//125 89//127 88//128
f 87//129 91//130 89//127
f 87//129 89//127 90//126
f 92//131 95//132 96//133
f 92//131 96//133 98//134
f 93//135 97//136 96//137
f 93//135 96//137 95//138
f 94//139 98//140 96//137
f 94//139 96//137 97//136
f 99//141 102//142 103//143
f 99//141 103//143 105//144
f 100//145 104//146 103//147
f 100//145 103//147 102//148
f 101//149 105//150 103//147
f 101//149 103//147 104//146
f 106//151 109//152 110//153
f 106//151 110//153 112//154
f 107//155 111//156 110//157
f 107//155 110//157 109//158
f 108//159 112//160 110//157
f 108//159 110//157 111//156
f 3//9 16//25 18//28
f 3//9 18//28 7//10
f 7//4 18//22 15//21
f 7//4 15//21 1//1
f 24//39 9//15 11//18
f 24//39 11//18 28//40
f 28//34 11//12 8//11
f 28//34 8//11 22//31
f 2//5 10//19 13//16
f 2//5 13//16 6//6
f 6//6 13//16 9//15
f 6//6 9//15 3//9
f 23//35 17//29 20//26
f 23//35 20//26 27//36
f 27//36 20//26 16//25
f 27//36 16//25 24//39
f 17//29 30//45 32//48
f 17//29 32//48 21//30
f 21//24 32//42 29//41
f 21//24 29//41 15//21
f 38//59 23//35 25//38
f 38//59 25//38 42//60
f 42//54 25//32 22//31
f 42//54 22//31 36//51
f 37//55 31//49 34//46
f 37//55 34//46 41//56
f 41//56 34//46 30//45
f 41//56 30//45 38//59
f 31//49 44//65 46//68
f 31//49 46//68 35//50
f 35//44 46//62 43//61
f 35//44 43//61 29//41
f 52//79 37//55 39//58
f 52//79 39//58 56//80
f 56//74 39//52 36//51
f 56//74 36//51 50//71
f 51//75 45//69 48//66
f 51//75 48//66 55//76
f 55//76 48//66 44//65
f 55//76 44//65 52//79
f 45//69 58//85 60//88
f 45//69 60//88 49//70
f 49//64 60//82 57//81
f 49//64 57//81 43//61
f 66//99 51//75 53//78
f 66//99 53//78 70//100
f 70//94 53//72 50//71
f 70//94 50//71 64//91
f 65//95 59//89 62//86
f 65//95 62//86 69//96
f 69//96 62//86 58//85
f 69//96 58//85 66//99
f 59//89 72//105 74//108
f 59//89 74//108 63//90
f 63//84 74//102 71//101
f 63//84 71//101 57//81
f 80//119 65//95 67//98
f 80//119 67//98 84//120
f 84//114 67//92 64//91
f 84//114 64//91 78//111
f 79//115 73//109 76//106
f 79//115 76//106 83//116
f 83//116 76//106 72//105
f 83//116 72//105 80//119
f 73//109 86//125 88//128
f 73//109 88//128 77//110
f 77//104 88//122 85//121
f 77//104 85//121 71//101
f 94//139 79//115 81//118
f 94//139 81//118 98//140
f 98//134 81//112 78//111
f 98//134 78//111 92//131
f 93//135 87//129 90//126
f 93//135 90//126 97//136
f 97//136 90//126 86//125
f 97//136 86//125 94//139
f 87//129 100//145 102//148
f 87//129 102//148 91//130
f 91//124 102//142 99//141
f 91//124 99//141 85//121
f 108//159 93//135 95//138
f 108//159 95//138 112//160
f 112//154 95//132 92//131
f 112//154 92//131 106//151
f 107//155 101//149 104//146
f 107//155 104//146 111//156
f 111//156 104//146 100//145
f 111//156 100//145 108//159
f 101//149 2//5 4//8
f 101//149 4//8 105//150
f 105//144 4//2 1//1
f 105//144 1//1 99//141
f 10//19 107//155 109//158
f 10//19 109//158 14//20
f 14//14 109//152 106//151
f 14//14 106//151 8//11
f 99//141 1//1 15//21
f 15//21 29//41 43//61
f 43//61 57//81 71//101
f 71//101 85//121 99//141
f 99//141 15//21 43//61
f 43//61 71//101 99//141
f 3//9 9//15 24//39
f 3//9 24//39 16//25
f 101//149 107//155 10//19
f 101//149 10//19 2//5
f 36//51 22//31 8//11
f 8//11 106//151 92//131
f 92//131 78//111 64//91
f 64//91 50//71 36//51
f 36//51 8//11 92//131
f 92//131 64//91 36//51
f 17//29 23//35 38//59
f 17//29 38//59 30//45
f 31//49 37//55 52//79
f 31//49 52//79 44//65
f 45//69 51//75 66//99
f 45//69 66//99 58//85
f 59//89 65//95 80//119
f 59//89 80//119 72//105
f 73//109 79//115 94//139
f 73//109 94//139 86//125
f 87//129 93//135 108//159
f 87//129 108//159 100//145
f 113//161 116//162 117//163
f 113//161 117//163 119//164
f 114//165 118//166 117//167
f 114//165 117//167 116//168
f 115//169 119//170 117//167
f 115//169 117//167 118//166
f 120//171 123//172 124//173
f 120//171 124//173 126//174
f 121//175 125//176 124//177
f 121//175 124//177 123//178
f 122//179 126//180 124//177
f 122//179 124//177 125//176
f 127//181 130//182 131//183
f 127//181 131//183 133//184
f 128//185 132//186 131//187
f 128//185 131//187 130//188
f 129//189 133//190 131//187
f 129//189 131//187 132//186
f 134//191 137//192 138//193
f 134//191 138//193 140//194
f 135//195 139//196 138//197
f 135//195 138//197 137//198
f 136//199 140//200 138//197
f 136//199 138//197 139//196
f 141//201 144//202 145//203
f 141//201 145//203 147//204
f 142//205 146//206 145//207
f 142//205 145//207 144//208
f 143//209 147//210 145//207
f 143//209 145//207 146//206
f 148//211 151//212 152//213
f 148//211 152//213 154//214
f 149//215 153//216 152//217
f 149//215 152//217 151//218
f 150//219 154//220 152//217
f 150//219 152//217 153//216
f 155//221 158//222 159//223
f 155//221 159//223 161//224
f 156//225 160//226 159//227
f 156//225 159//227 158//228
f 157//229 161//230 159//227
f 157//229 159//227 160//226
f 162//231 165//232 166//233
f 162//231 166//233 168//234
f 163//235 167//236 166//237
f 163//235 166//237 165//238
f 164//239 168//240 166//237
f 164//239 166//237 167//236
f 169//241 172//242 173//243
f 169//241 173//243 175//244
f 170//245 174//246 173//247
f 170//245 173//247 172//248
f 171//249 175//250 173//247
f 171//249 173//247 174//246
f 176//251 179//252 180//253
f 176//251 180//253 182//254
f 177//255 181//256 180//257
f 177//255 180//257 179//258
f 178//259 182//260 180//257
f 178//259 180//257 181//256
f 183//261 186//262 187//263
f 183//261 187//263 189//264
f 184//265 188//266 187//267
f 184//265 187//267 186//268
f 185//269 189//270 187//267
f 185//269 187//267 188//266
f 190//271 193//272 194//273
f 190//271 194//273 196//274
f 191//275 195//276 194//277
f 191//275 194//277 193//278
f 192//279 196//280 194//277
f 192//279 194//277 195//276
f 197//281 200//282 201//283
f 197//281 201//283 203//284
f 198//285 202//286 201//287
f 198//285 201//287 200//288
f 199//289 203//290 201//287
f 199//289 201//287 202//286
f 204//291 207//292 208//293
f 204//291 208//293 210//294
f 205//295 209//296 208//297
f 205//295 208//297 207//298
f 206//299 210//300 208//297
f 206//299 208//297 209//296
f 211//301 214//302 215//303
f 211//301 215//303 217//304
f 212//305 216//306 215//307
f 212//305 215//307 214//308
f 213//309 217//310 215//307
f 213//309 215//307 216//306
f 218//311 221//312 222//313
f 218//311 222//313 224//314
f 219//315 223//316 222//317
f 219//315 222//317 221//318
f 220//319 224//320 222//317
f 220//319 222//317 223//316
f 115//169 128//185 130//188
f 115//169 130//188 119//170
f 119//164 130//182 127//181
f 119//164 127//181 113//161
f 136//199 121//175 123//178
f 136//199 123//178 140//200
f 140//194 123//172 120//171
f 140//194 120//171 134//191
f 114//165 122//179 125//176
f 114//165 125//176 118//166
f 118//166 125//176 121//175
f 118//166 121//175 115//169
f 135//195 129//189 132//186
f 135//195 132//186 139//196
f 139//196 132//186 128//185
f 139//196 128//185 136//199
f 129//189 142//205 144//208
f 129//189 144//208 133//190
f 133//184 144//202 141//201
f 133//184 141//201 127//181
f 150//219 135//195 137//198
f 150//219 137//198 154//220
f 154//214 137//192 134//191
f 154//214 134//191 148//211
f 149//215 143//209 146//206
f 149//215 146//206 153//216
f 153//216 146//206 142//205
f 153//216 142//205 150//219
f 143//209 156//225 158//228
f 143//209 158//228 147//210
f 147//204 158//222 155//221
f 147//204 155//221 141//201
f 164//239 149//215 151//218
f 164//239 151//218 168//240
f 168//234 151//212 148//211
f 168//234 148//211 162//231
f 163//235 157//229 160//226
f 163//235 160//226 167//236
f 167//236 160//226 156//225
f 167//236 156//225 164//239
f 157//229 170//245 172//248
f 157//229 172//248 161//230
f 161//224 172//242 169//241
f 161//224 169//241 155//221
f 178//259 163//235 165//238
f 178//259 165//238 182//260
f 182//254 165//232 162//231
f 182//254 162//231 176//251
f 177//255 171//249 174//246
f 177//255 174//246 181//256
f 181//256 174//246 170//245
f 181//256 170//245 178//259
f 171//249 184//265 186//268
f 171//249 186//268 175//250
f 175//244 186//262 183//261
f 175//244 183//261 169//241
f 192//279 177//255 179//258
f 192//279 179//258 196//280
f 196//274 179//252 176//251
f 196//274 176//251 190//271
f 191//275 185//269 188//266
f 191//275 188//266 195//276
f 195//276 188//266 184//265
f 195//276 184//265 192//279
f 185//269 198//285 200//288
f 185//269 200//288 189//270
f 189//264 200//282 197//281
f 189//264 197//281 183//261
f 206//299 191//275 193//278
f 206//299 193//278 210//300
f 210//294 193//272 190//271
f 210//294 190//271 204//291
f 205//295 199//289 202//286
f 205//295 202//286 209//296
f 209//296 202//286 198//285
f 209//296 198//285 206//299
f 199//289 212//305 214//308
f 199//289 214//308 203//290
f 203//284 214//302 211//301
f 203//284 211//301 197//281
f 220//319 205//295 207//298
f 220//319 207//298 224//320
f 224//314 207//292 204//291
f 224//314 204//291 218//311
f 219//315 213//309 216//306
f 219//315 216//306 223//316
f 223//316 216//306 212//305
f 223//316 212//305 220//319
f 213//309 114//165 116//168
f 213//309 116//168 217//310
f 217//304 116//162 113//161
f 217//304 113//161 211//301
f 122//179 219//315 221//318
f 122//179 221//318 126//180
f 126//174 221//312 218//311
f 126//174 218//311 120//171
f 211//301 113//161 127//181
f 127//181 141//201 155//221
f 155//221 169//241 183//261
f 183//261 197//281 211//301
f 211//301 127//181 155//221
f 155//221 183//261 211//301
f 115//169 121//175 136//199
f 115//169 136//199 128//185
f 213//309 219//315 122//179
f 213//309 122//179 114//165
f 148//211 134//191 120//171
f 120//171 218//311 204//291
f 204//291 190//271 176//251
f 176//251 162//231 148//211
f 148//211 120//171 204//291
f 204//291 176//251 148//211
f 129//189 135//195 150//219
f 129//189 150//219 142//205
f 143//209 149//215 164//239
f 143//209 164//239 156//225
f 157//229 163//235 178//259
f 157//229 178//259 170//245
f 171//249 177//255 192//279
f 171//249 192//279 184//265
f 185//269 191//275 206//299
f 185//269 206//299 198//285
f 199//289 205//295 220//319
f 199//289 220//319 212//305
