# tibia_hub -- Spyder-v0 visual shell, generated by make_spyder_mesh.py
# visual only: MuJoCo collides the capsules in spyder12.xml, not this mesh
v 0.000000 -0.081000 -0.059914
v 0.000000 -0.071000 -0.070000
v 0.000000 -0.078071 -0.067046
v -0.000000 0.081000 -0.059914
v 0.000000 0.071000 -0.070000
v -0.000000 0.078071 -0.067046
v 0.015507 -0.081000 -0.057872
v 0.018117 -0.071000 -0.067615
v 0.017353 -0.078071 -0.064761
v 0.015507 0.081000 -0.057872
v 0.018117 0.071000 -0.067615
v 0.017353 0.078071 -0.064761
v 0.029957 -0.081000 -0.051887
v 0.035000 -0.071000 -0.060622
v 0.033523 -0.078071 -0.058063
v 0.029957 0.081000 -0.051887
v 0.035000 0.071000 -0.060622
v 0.033523 0.078071 -0.058063
v 0.042365 -0.081000 -0.042365
v 0.049497 -0.071000 -0.049497
v 0.047409 -0.078071 -0.047409
v 0.042365 0.081000 -0.042365
v 0.049497 0.071000 -0.049497
v 0.047409 0.078071 -0.047409
v 0.051887 -0.081000 -0.029957
v 0.060622 -0.071000 -0.035000
v 0.058063 -0.078071 -0.033523
v 0.051887 0.081000 -0.029957
v 0.060622 0.071000 -0.035000
v 0.058063 0.078071 -0.033523
v 0.057872 -0.081000 -0.015507
v 0.067615 -0.071000 -0.018117
v 0.064761 -0.078071 -0.017353
v 0.057872 0.081000 -0.015507
v 0.067615 0.071000 -0.018117
v 0.064761 0.078071 -0.017353
v 0.059914 -0.081000 -0.000000
v 0.070000 -0.071000 -0.000000
v 0.067046 -0.078071 -0.000000
v 0.059914 0.081000 0.000000
v 0.070000 0.071000 0.000000
v 0.067046 0.078071 0.000000
v 0.057872 -0.081000 0.015507
v 0.067615 -0.071000 0.018117
v 0.064761 -0.078071 0.017353
v 0.057872 0.081000 0.015507
v 0.067615 0.071000 0.018117
v 0.064761 0.078071 0.017353
v 0.051887 -0.081000 0.029957
v 0.060622 -0.071000 0.035000
v 0.058063 -0.078071 0.033523
v 0.051887 0.081000 0.029957
v 0.060622 0.071000 0.035000
v 0.058063 0.078071 0.033523
v 0.042365 -0.081000 0.042365
v 0.049497 -0.071000 0.049497
v 0.047409 -0.078071 0.047409
v 0.042365 0.081000 0.042365
v 0.049497 0.071000 0.049497
v 0.047409 0.078071 0.047409
v 0.029957 -0.081000 0.051887
v 0.035000 -0.071000 0.060622
v 0.033523 -0.078071 0.058063
v 0.029957 0.081000 0.051887
v 0.035000 0.071000 0.060622
v 0.033523 0.078071 0.058063
v 0.015507 -0.081000 0.057872
v 0.018117 -0.071000 0.067615
v 0.017353 -0.078071 0.064761
v 0.015507 0.081000 0.057872
v 0.018117 0.071000 0.067615
v 0.017353 0.078071 0.064761
v -0.000000 -0.081000 0.059914
v 0.000000 -0.071000 0.070000
v -0.000000 -0.078071 0.067046
v 0.000000 0.081000 0.059914
v 0.000000 0.071000 0.070000
v 0.000000 0.078071 0.067046
v -0.015507 -0.081000 0.057872
v -0.018117 -0.071000 0.067615
v -0.017353 -0.078071 0.064761
v -0.015507 0.081000 0.057872
v -0.018117 0.071000 0.067615
v -0.017353 0.078071 0.064761
v -0.029957 -0.081000 0.051887
v -0.035000 -0.071000 0.060622
v -0.033523 -0.078071 0.058063
v -0.029957 0.081000 0.051887
v -0.035000 0.071000 0.060622
v -0.033523 0.078071 0.058063
v -0.042365 -0.081000 0.042365
v -0.049497 -0.071000 0.049497
v -0.047409 -0.078071 0.047409
v -0.042365 0.081000 0.042365
v -0.049497 0.071000 0.049497
v -0.047409 0.078071 0.047409
v -0.051887 -0.081000 0.029957
v -0.060622 -0.071000 0.035000
v -0.058063 -0.078071 0.033523
v -0.051887 0.081000 0.029957
v -0.060622 0.071000 0.035000
v -0.058063 0.078071 0.033523
v -0.057872 -0.081000 0.015507
v -0.067615 -0.071000 0.018117
v -0.064761 -0.078071 0.017353
v -0.057872 0.081000 0.015507
v -0.067615 0.071000 0.018117
v -0.064761 0.078071 0.017353
v -0.059914 -0.081000 -0.000000
v -0.070000 -0.071000 -0.000000
v -0.067046 -0.078071 -0.000000
v -0.059914 0.081000 0.000000
v -0.070000 0.071000 0.000000
v -0.067046 0.078071 0.000000
v -0.057872 -0.081000 -0.015507
v -0.067615 -0.071000 -0.018117
v -0.064761 -0.078071 -0.017353
v -0.057872 0.081000 -0.015507
v -0.067615 0.071000 -0.018117
v -0.064761 0.078071 -0.017353
v -0.051887 -0.081000 -0.029957
v -0.060622 -0.071000 -0.035000
v -0.058063 -0.078071 -0.033523
v -0.051887 0.081000 -0.029957
v -0.060622 0.071000 -0.035000
v -0.058063 0.078071 -0.033523
v -0.042365 -0.081000 -0.042365
v -0.049497 -0.071000 -0.049497
v -0.047409 -0.078071 -0.047409
v -0.042365 0.081000 -0.042365
v -0.049497 0.071000 -0.049497
v -0.047409 0.078071 -0.047409
v -0.029957 -0.081000 -0.051887
v -0.035000 -0.071000 -0.060622
v -0.033523 -0.078071 -0.058063
v -0.029957 0.081000 -0.051887
v -0.035000 0.071000 -0.060622
v -0.033523 0.078071 -0.058063
v -0.015507 -0.081000 -0.057872
v -0.018117 -0.071000 -0.067615
v -0.017353 -0.078071 -0.064761
v -0.015507 0.081000 -0.057872
v -0.018117 0.071000 -0.067615
v -0.017353 0.078071 -0.064761
vn 0.04299 -0.19653 -0.97956
vn 0.29505 -0.19653 -0.93505
vn 0.19954 -0.38518 -0.90101
vn -0.04046 -0.38518 -0.92195
vn 0.01667 -0.92491 -0.37983
vn 0.11441 -0.92491 -0.36257
vn 0.04187 -0.98107 -0.18908
vn -0.01268 -0.95728 -0.28889
vn 0.21201 0.19653 -0.95730
vn -0.04299 0.19653 -0.97956
vn 0.04046 0.38518 -0.92195
vn 0.27770 0.38518 -0.88007
vn 0.08221 0.92491 -0.37120
vn -0.01667 0.92491 -0.37983
vn 0.00849 0.98107 -0.19348
vn 0.08702 0.95728 -0.27577
vn 0.52701 -0.19653 -0.82683
vn 0.42594 -0.38518 -0.81866
vn 0.20435 -0.92491 -0.32061
vn 0.13347 -0.95728 -0.25653
vn 0.45255 0.19653 -0.86981
vn 0.49602 0.38518 -0.77821
vn 0.17548 0.92491 -0.33728
vn 0.06225 0.99327 -0.09766
vn 0.72305 -0.19653 -0.66225
vn 0.62331 -0.38518 -0.68053
vn 0.28037 -0.92491 -0.25679
vn 0.09797 -0.98942 -0.10696
vn 0.66225 0.19653 -0.72305
vn 0.68053 0.38518 -0.62331
vn 0.25679 0.92491 -0.28037
vn 0.21324 0.95728 -0.19531
vn 0.86981 -0.19653 -0.45255
vn 0.77821 -0.38518 -0.49602
vn 0.33728 -0.92491 -0.17548
vn 0.24385 -0.95728 -0.15543
vn 0.82683 0.19653 -0.52701
vn 0.81866 0.38518 -0.42594
vn 0.32061 0.92491 -0.20435
vn 0.17180 0.98107 -0.08939
vn 0.95730 -0.19653 -0.21201
vn 0.88007 -0.38518 -0.27770
vn 0.37120 -0.92491 -0.08221
vn 0.18469 -0.98107 -0.05828
vn 0.93505 0.19653 -0.29505
vn 0.90101 0.38518 -0.19954
vn 0.36257 0.92491 -0.11441
vn 0.28233 0.95728 -0.06253
vn 0.97956 -0.19653 0.04299
vn 0.92195 -0.38518 -0.04046
vn 0.37983 -0.92491 0.01667
vn 0.28889 -0.95728 -0.01268
vn 0.97956 0.19653 -0.04299
vn 0.92195 0.38518 0.04046
vn 0.37983 0.92491 -0.01667
vn 0.14491 0.98942 0.00636
vn 0.93505 -0.19653 0.29505
vn 0.90101 -0.38518 0.19954
vn 0.36257 -0.92491 0.11441
vn 0.11307 -0.99327 0.02504
vn 0.95730 0.19653 0.21201
vn 0.88007 0.38518 0.27770
vn 0.37120 0.92491 0.08221
vn 0.27577 0.95728 0.08702
vn 0.82683 -0.19653 0.52701
vn 0.81866 -0.38518 0.42594
vn 0.32061 -0.92491 0.20435
vn 0.25653 -0.95728 0.13347
vn 0.86981 0.19653 0.45255
vn 0.77821 0.38518 0.49602
vn 0.33728 0.92491 0.17548
vn 0.16331 0.98107 0.10409
vn 0.66225 -0.19653 0.72305
vn 0.68053 -0.38518 0.62331
vn 0.25679 -0.92491 0.28037
vn 0.14281 -0.98107 0.13081
vn 0.72305 0.19653 0.66225
vn 0.62331 0.38518 0.68053
vn 0.28037 0.92491 0.25679
vn 0.19531 0.95728 0.21324
vn 0.45255 -0.19653 0.86981
vn 0.49602 -0.38518 0.77821
vn 0.17548 -0.92491 0.33728
vn 0.15543 -0.95728 0.24385
vn 0.52701 0.19653 0.82683
vn 0.42594 0.38518 0.81866
vn 0.20435 0.92491 0.32061
vn 0.05345 0.99327 0.10274
vn 0.21201 -0.19653 0.95730
vn 0.27770 -0.38518 0.88007
vn 0.08221 -0.92491 0.37120
vn 0.04365 -0.98942 0.13833
vn 0.29505 0.19653 0.93505
vn 0.19954 0.38518 0.90101
vn 0.11441 0.92491 0.36257
vn 0.06253 0.95728 0.28233
vn -0.04299 -0.19653 0.97956
vn 0.04046 -0.38518 0.92195
vn -0.01667 -0.92491 0.37983
vn 0.01268 -0.95728 0.28889
vn 0.04299 0.19653 0.97956
vn -0.04046 0.38518 0.92195
vn 0.01667 0.92491 0.37983
vn -0.00849 0.98107 0.19348
vn -0.29505 -0.19653 0.93505
vn -0.19954 -0.38518 0.90101
vn -0.11441 -0.92491 0.36257
vn -0.04187 -0.98107 0.18908
vn -0.21201 0.19653 0.95730
vn -0.27770 0.38518 0.88007
vn -0.08221 0.92491 0.37120
vn -0.08702 0.95728 0.27577
vn -0.52701 -0.19653 0.82683
vn -0.42594 -0.38518 0.81866
vn -0.20435 -0.92491 0.32061
vn -0.13347 -0.95728 0.25653
vn -0.45255 0.19653 0.86981
vn -0.49602 0.38518 0.77821
vn -0.17548 0.92491 0.33728
vn -0.07796 0.98942 0.12232
vn -0.72305 -0.19653 0.66225
vn -0.62331 -0.38518 0.68053
vn -0.28037 -0.92491 0.25679
vn -0.07822 -0.99327 0.08540
vn -0.66225 0.19653 0.72305
vn -0.68053 0.38518 0.62331
vn -0.25679 0.92491 0.28037
vn -0.21324 0.95728 0.19531
vn -0.86981 -0.19653 0.45255
vn -0.77821 -0.38518 0.49602
vn -0.33728 -0.92491 0.17548
vn -0.24385 -0.95728 0.15543
vn -0.82683 0.19653 0.52701
vn -0.81866 0.38518 0.42594
vn -0.32061 0.92491 0.20435
vn -0.17180 0.98107 0.08939
vn -0.95730 -0.19653 0.21201
vn -0.88007 -0.38518 0.27770
vn -0.37120 -0.92491 0.08221
vn -0.18469 -0.98107 0.05828
vn -0.93505 0.19653 0.29505
vn -0.90101 0.38518 0.19954
vn -0.36257 0.92491 0.11441
vn -0.28233 0.95728 0.06253
vn -0.97956 -0.19653 -0.04299
vn -0.92195 -0.38518 0.04046
vn -0.37983 -0.92491 -0.01667
vn -0.28889 -0.95728 0.01268
vn -0.97956 0.19653 0.04299
vn -0.92195 0.38518 -0.04046
vn -0.37983 0.92491 0.01667
vn -0.11570 0.99327 -0.00508
vn -0.93505 -0.19653 -0.29505
vn -0.90101 -0.38518 -0.19954
vn -0.36257 -0.92491 -0.11441
vn -0.14162 -0.98942 -0.03136
vn -0.95730 0.19653 -0.21201
vn -0.88007 0.38518 -0.27770
vn -0.37120 0.92491 -0.08221
vn -0.27577 0.95728 -0.08702
vn -0.82683 -0.19653 -0.52701
vn -0.81866 -0.38518 -0.42594
vn -0.32061 -0.92491 -0.20435
vn -0.25653 -0.95728 -0.13347
vn -0.86981 0.19653 -0.45255
vn -0.77821 0.38518 -0.49602
vn -0.33728 0.92491 -0.17548
vn -0.16331 0.98107 -0.10409
vn -0.66225 -0.19653 -0.72305
vn -0.68053 -0.38518 -0.62331
vn -0.25679 -0.92491 -0.28037
vn -0.14281 -0.98107 -0.13080
vn -0.72305 0.19653 -0.66225
vn -0.62331 0.38518 -0.68053
vn -0.28037 0.92491 -0.25679
vn -0.19531 0.95728 -0.21324
vn -0.45255 -0.19653 -0.86981
vn -0.49602 -0.38518 -0.77821
vn -0.17548 -0.92491 -0.33728
vn -0.15543 -0.95728 -0.24385
vn -0.52701 0.19653 -0.82683
vn -0.42594 0.38518 -0.81866
vn -0.20435 0.92491 -0.32061
vn -0.06695 0.98942 -0.12868
vn -0.21201 -0.19653 -0.95730
vn -0.27770 -0.38518 -0.88007
vn -0.08221 -0.92491 -0.37120
vn -0.03485 -0.99327 -0.11044
vn -0.29505 0.19653 -0.93505
vn -0.19954 0.38518 -0.90101
vn -0.11441 0.92491 -0.36257
vn -0.06253 0.95728 -0.28233
f 2//1 8//2 9//3
f 2//1 9//3 3//4
f 3//5 9//6 7//7
f 3//5 7//7 1//8
f 11//9 5//10 6//11
f 11//9 6//11 12//12
f 12//13 6//14 4//15
f 12//13 4//15 10//16
f 8//2 14//17 15//18
f 8//2 15//18 9//3
f 9//6 15//19 13//20
f 9//6 13//20 7//7
f 17//21 11//9 12//12
f 17//21 12//12 18//22
f 18//23 12//13 10//16
f 18//23 10//16 16//24
f 14//17 20//25 21//26
f 14//17 21//26 15//18
f 15//19 21//27 19//28
f 15//19 19//28 13//20
f 23//29 17//21 18//22
f 23//29 18//22 24//30
f 24//31 18//23 16//24
f 24//31 16//24 22//32
f 20//25 26//33 27//34
f 20//25 27//34 21//26
f 21//27 27//35 25//36
f 21//27 25//36 19//28
f 29//37 23//29 24//30
f 29//37 24//30 30//38
f 30//39 24//31 22//32
f 30//39 22//32 28//40
f 26//33 32//41 33//42
f 26//33 33//42 27//34
f 27//35 33//43 31//44
f 27//35 31//44 25//36
f 35//45 29//37 30//38
f 35//45 30//38 36//46
f 36//47 30//39 28//40
f 36//47 28//40 34//48
f 32//41 38//49 39//50
f 32//41 39//50 33//42
f 33//43 39//51 37//52
f 33//43 37//52 31//44
f 41//53 35//45 36//46
f 41//53 36//46 42//54
f 42//55 36//47 34//48
f 42//55 34//48 40//56
f 38//49 44//57 45//58
f 38//49 45//58 39//50
f 39//51 45//59 43//60
f 39//51 43//60 37//52
f 47//61 41//53 42//54
f 47//61 42//54 48//62
f 48//63 42//55 40//56
f 48//63 40//56 46//64
f 44//57 50//65 51//66
f 44//57 51//66 45//58
f 45//59 51//67 49//68
f 45//59 49//68 43//60
f 53//69 47//61 48//62
f 53//69 48//62 54//70
f 54//71 48//63 46//64
f 54//71 46//64 52//72
f 50//65 56//73 57//74
f 50//65 57//74 51//66
f 51//67 57//75 55//76
f 51//67 55//76 49//68
f 59//77 53//69 54//70
f 59//77 54//70 60//78
f 60//79 54//71 52//72
f 60//79 52//72 58//80
f 56//73 62//81 63//82
f 56//73 63//82 57//74
f 57//75 63//83 61//84
f 57//75 61//84 55//76
f 65//85 59//77 60//78
f 65//85 60//78 66//86
f 66//87 60//79 58//80
f 66//87 58//80 64//88
f 62//81 68//89 69//90
f 62//81 69//90 63//82
f 63//83 69//91 67//92
f 63//83 67//92 61//84
f 71//93 65//85 66//86
f 71//93 66//86 72//94
f 72//95 66//87 64//88
f 72//95 64//88 70//96
f 68//89 74//97 75//98
f 68//89 75//98 69//90
f 69//91 75//99 73//100
f 69//91 73//100 67//92
f 77//101 71//93 72//94
f 77//101 72//94 78//102
f 78//103 72//95 70//96
f 78//103 70//96 76//104
f 74//97 80//105 81//106
f 74//97 81//106 75//98
f 75//99 81//107 79//108
f 75//99 79//108 73//100
f 83//109 77//101 78//102
f 83//109 78//102 84//110
f 84//111 78//103 76//104
f 84//111 76//104 82//112
f 80//105 86//113 87//114
f 80//105 87//114 81//106
f 81//107 87//115 85//116
f 81//107 85//116 79//108
f 89//117 83//109 84//110
f 89//117 84//110 90//118
f 90//119 84//111 82//112
f 90//119 82//112 88//120
f 86//113 92//121 93//122
f 86//113 93//122 87//114
f 87//115 93//123 91//124
f 87//115 91//124 85//116
f 95//125 89//117 90//118
f 95//125 90//118 96//126
f 96//127 90//119 88//120
f 96//127 88//120 94//128
f 92//121 98//129 99//130
f 92//121 99//130 93//122
f 93//123 99//131 97//132
f 93//123 97//132 91//124
f 101//133 95//125 96//126
f 101//133 96//126 102//134
f 102//135 96//127 94//128
f 102//135 94//128 100//136
f 98//129 104//137 105//138
f 98//129 105//138 99//130
f 99//131 105//139 103//140
f 99//131 103//140 97//132
f 107//141 101//133 102//134
f 107//141 102//134 108//142
f 108//143 102//135 100//136
f 108//143 100//136 106//144
f 104//137 110//145 111//146
f 104//137 111//146 105//138
f 105//139 111//147 109//148
f 105//139 109//148 103//140
f 113//149 107//141 108//142
f 113//149 108//142 114//150
f 114//151 108//143 106//144
f 114//151 106//144 112//152
f 110//145 116//153 117//154
f 110//145 117//154 111//146
f 111//147 117//155 115//156
f 111//147 115//156 109//148
f 119//157 113//149 114//150
f 119//157 114//150 120//158
f 120//159 114//151 112//152
f 120//159 112//152 118//160
f 116//153 122//161 123//162
f 116//153 123//162 117//154
f 117//155 123//163 121//164
f 117//155 121//164 115//156
f 125//165 119//157 120//158
f 125//165 120//158 126//166
f 126//167 120//159 118//160
f 126//167 118//160 124//168
f 122//161 128//169 129//170
f 122//161 129//170 123//162
f 123//163 129//171 127//172
f 123//163 127//172 121//164
f 131//173 125//165 126//166
f 131//173 126//166 132//174
f 132//175 126//167 124//168
f 132//175 124//168 130//176
f 128//169 134//177 135//178
f 128//169 135//178 129//170
f 129//171 135//179 133//180
f 129//171 133//180 127//172
f 137//181 131//173 132//174
f 137//181 132//174 138//182
f 138//183 132//175 130//176
f 138//183 130//176 136//184
f 134//177 140//185 141//186
f 134//177 141//186 135//178
f 135//179 141//187 139//188
f 135//179 139//188 133//180
f 143//189 137//181 138//182
f 143//189 138//182 144//190
f 144//191 138//183 136//184
f 144//191 136//184 142//192
f 140//185 2//1 3//4
f 140//185 3//4 141//186
f 141//187 3//5 1//8
f 141//187 1//8 139//188
f 5//10 143//189 144//190
f 5//10 144//190 6//11
f 6//14 144//191 142//192
f 6//14 142//192 4//15
f 139//188 1//8 7//7
f 7//7 13//20 19//28
f 19//28 25//36 31//44
f 31//44 37//52 43//60
f 43//60 49//68 55//76
f 55//76 61//84 67//92
f 67//92 73//100 79//108
f 79//108 85//116 91//124
f 91//124 97//132 103//140
f 103//140 109//148 115//156
f 115//156 121//164 127//172
f 127//172 133//180 139//188
f 139//188 7//7 19//28
f 19//28 31//44 43//60
f 43//60 55//76 67//92
f 67//92 79//108 91//124
f 91//124 103//140 115//156
f 115//156 127//172 139//188
f 139//188 19//28 43//60
f 43//60 67//92 91//124
f 91//124 115//156 139//188
f 43//60 91//124 139//188
f 2//1 5//10 11//9
f 2//1 11//9 8//2
f 140//185 143//189 5//10
f 140//185 5//10 2//1
f 16//24 10//16 4//15
f 4//15 142//192 136//184
f 136//184 130//176 124//168
f 124//168 118//160 112//152
f 112//152 106//144 100//136
f 100//136 94//128 88//120
f 88//120 82//112 76//104
f 76//104 70//96 64//88
f 64//88 58//80 52//72
f 52//72 46//64 40//56
f 40//56 34//48 28//40
f 28//40 22//32 16//24
f 16//24 4//15 136//184
f 136//184 124//168 112//152
f 112//152 100//136 88//120
f 88//120 76//104 64//88
f 64//88 52//72 40//56
f 40//56 28//40 16//24
f 16//24 136//184 112//152
f 112//152 88//120 64//88
f 64//88 40//56 16//24
f 112//152 64//88 16//24
f 8//2 11//9 17//21
f 8//2 17//21 14//17
f 14//17 17//21 23//29
f 14//17 23//29 20//25
f 20//25 23//29 29//37
f 20//25 29//37 26//33
f 26//33 29//37 35//45
f 26//33 35//45 32//41
f 32//41 35//45 41//53
f 32//41 41//53 38//49
f 38//49 41//53 47//61
f 38//49 47//61 44//57
f 44//57 47//61 53//69
f 44//57 53//69 50//65
f 50//65 53//69 59//77
f 50//65 59//77 56//73
f 56//73 59//77 65//85
f 56//73 65//85 62//81
f 62//81 65//85 71//93
f 62//81 71//93 68//89
f 68//89 71//93 77//101
f 68//89 77//101 74//97
f 74//97 77//101 83//109
f 74//97 83//109 80//105
f 80//105 83//109 89//117
f 80//105 89//117 86//113
f 86//113 89//117 95//125
f 86//113 95//125 92//121
f 92//121 95//125 101//133
f 92//121 101//133 98//129
f 98//129 101//133 107//141
f 98//129 107//141 104//137
f 104//137 107//141 113//149
f 104//137 113//149 110//145
f 110//145 113//149 119//157
f 110//145 119//157 116//153
f 116//153 119//157 125//165
f 116//153 125//165 122//161
f 122//161 125//165 131//173
f 122//161 131//173 128//169
f 128//169 131//173 137//181
f 128//169 137//181 134//177
f 134//177 137//181 143//189
f 134//177 143//189 140//185
