# tibia_pad -- Spyder-v0 visual shell, generated by make_spyder_mesh.py
# visual only: MuJoCo collides the capsules in spyder12.xml, not this mesh
v 0.311127 0.000000 -0.440000
v 0.311127 0.017802 -0.442006
v 0.311127 0.062547 -0.470121
v 0.311127 0.077994 -0.502198
v 0.311127 0.077994 -0.537802
v 0.311127 0.062547 -0.569879
v 0.311127 0.017802 -0.597994
v 0.311127 0.000000 -0.600000
v 0.315088 0.017355 -0.442006
v 0.318851 0.033840 -0.447922
v 0.322226 0.048629 -0.457453
v 0.325045 0.060978 -0.470121
v 0.327166 0.070270 -0.485289
v 0.328482 0.076039 -0.502198
v 0.328929 0.077994 -0.520000
v 0.328482 0.076039 -0.537802
v 0.327166 0.070270 -0.554711
v 0.325045 0.060978 -0.569879
v 0.322226 0.048629 -0.582546
v 0.318851 0.033840 -0.592077
v 0.315088 0.017355 -0.597994
v 0.318851 0.016039 -0.442006
v 0.326187 0.031273 -0.447922
v 0.332769 0.044940 -0.457453
v 0.338265 0.056352 -0.470121
v 0.342400 0.064940 -0.485289
v 0.344967 0.070270 -0.502198
v 0.345838 0.072078 -0.520000
v 0.344967 0.070270 -0.537802
v 0.342400 0.064940 -0.554711
v 0.338265 0.056352 -0.569879
v 0.332769 0.044940 -0.582546
v 0.326187 0.031273 -0.592077
v 0.318851 0.016039 -0.597994
v 0.322226 0.013918 -0.442006
v 0.332769 0.027138 -0.447922
v 0.342226 0.038997 -0.457453
v 0.350124 0.048901 -0.470121
v 0.356067 0.056352 -0.485289
v 0.359756 0.060978 -0.502198
v 0.361006 0.062547 -0.520000
v 0.359756 0.060978 -0.537802
v 0.356067 0.056352 -0.554711
v 0.350124 0.048901 -0.569879
v 0.342226 0.038997 -0.582546
v 0.332769 0.027138 -0.592077
v 0.322226 0.013918 -0.597994
v 0.325045 0.011099 -0.442006
v 0.338265 0.021642 -0.447922
v 0.350124 0.031099 -0.457453
v 0.360028 0.038997 -0.470121
v 0.367479 0.044940 -0.485289
v 0.372105 0.048629 -0.502198
v 0.373673 0.049879 -0.520000
v 0.372105 0.048629 -0.537802
v 0.367479 0.044940 -0.554711
v 0.360028 0.038997 -0.569879
v 0.350124 0.031099 -0.582546
v 0.338265 0.021642 -0.592077
v 0.325045 0.011099 -0.597994
v 0.327166 0.007724 -0.442006
v 0.342400 0.015060 -0.447922
v 0.356067 0.021642 -0.457453
v 0.367479 0.027138 -0.470121
v 0.376067 0.031273 -0.485289
v 0.381397 0.033840 -0.502198
v 0.383204 0.034711 -0.520000
v 0.381397 0.033840 -0.537802
v 0.376067 0.031273 -0.554711
v 0.367479 0.027138 -0.569879
v 0.356067 0.021642 -0.582546
v 0.342400 0.015060 -0.592077
v 0.327166 0.007724 -0.597994
v 0.328482 0.003961 -0.442006
v 0.344967 0.007724 -0.447922
v 0.359756 0.011099 -0.457453
v 0.372105 0.013918 -0.470121
v 0.381397 0.016039 -0.485289
v 0.387166 0.017355 -0.502198
v 0.389121 0.017802 -0.520000
v 0.387166 0.017355 -0.537802
v 0.381397 0.016039 -0.554711
v 0.372105 0.013918 -0.569879
v 0.359756 0.011099 -0.582546
v 0.344967 0.007724 -0.592077
v 0.328482 0.003961 -0.597994
v 0.328929 0.000000 -0.442006
v 0.345838 0.000000 -0.447922
v 0.361006 0.000000 -0.457453
v 0.373673 -0.000000 -0.470121
v 0.383204 0.000000 -0.485289
v 0.389121 -0.000000 -0.502198
v 0.391127 0.000000 -0.520000
v 0.389121 -0.000000 -0.537802
v 0.383204 0.000000 -0.554711
v 0.373673 -0.000000 -0.569879
v 0.361006 0.000000 -0.582546
v 0.345838 0.000000 -0.592077
v 0.328929 0.000000 -0.597994
v 0.328482 -0.003961 -0.442006
v 0.344967 -0.007724 -0.447922
v 0.359756 -0.011099 -0.457453
v 0.372105 -0.013918 -0.470121
v 0.381397 -0.016039 -0.485289
v 0.387166 -0.017355 -0.502198
v 0.389121 -0.017802 -0.520000
v 0.387166 -0.017355 -0.537802
v 0.381397 -0.016039 -0.554711
v 0.372105 -0.013918 -0.569879
v 0.359756 -0.011099 -0.582546
v 0.344967 -0.007724 -0.592077
v 0.328482 -0.003961 -0.597994
v 0.327166 -0.007724 -0.442006
v 0.342400 -0.015060 -0.447922
v 0.356067 -0.021642 -0.457453
v 0.367479 -0.027138 -0.470121
v 0.376067 -0.031273 -0.485289
v 0.381397 -0.033840 -0.502198
v 0.383204 -0.034711 -0.520000
v 0.381397 -0.033840 -0.537802
v 0.376067 -0.031273 -0.554711
v 0.367479 -0.027138 -0.569879
v 0.356067 -0.021642 -0.582546
v 0.342400 -0.015060 -0.592077
v 0.327166 -0.007724 -0.597994
v 0.325045 -0.011099 -0.442006
v 0.338265 -0.021642 -0.447922
v 0.350124 -0.031099 -0.457453
v 0.360028 -0.038997 -0.470121
v 0.367479 -0.044940 -0.485289
v 0.372105 -0.048629 -0.502198
v 0.373673 -0.049879 -0.520000
v 0.372105 -0.048629 -0.537802
v 0.367479 -0.044940 -0.554711
v 0.360028 -0.038997 -0.569879
v 0.350124 -0.031099 -0.582546
v 0.338265 -0.021642 -0.592077
v 0.325045 -0.011099 -0.597994
v 0.322226 -0.013918 -0.442006
v 0.332769 -0.027138 -0.447922
v 0.342226 -0.038997 -0.457453
v 0.350124 -0.048901 -0.470121
v 0.356067 -0.056352 -0.485289
v 0.359756 -0.060978 -0.502198
v 0.361006 -0.062547 -0.520000
v 0.359756 -0.060978 -0.537802
v 0.356067 -0.056352 -0.554711
v 0.350124 -0.048901 -0.569879
v 0.342226 -0.038997 -0.582546
v 0.332769 -0.027138 -0.592077
v 0.322226 -0.013918 -0.597994
v 0.318851 -0.016039 -0.442006
v 0.326187 -0.031273 -0.447922
v 0.332769 -0.044940 -0.457453
v 0.338265 -0.056352 -0.470121
v 0.342400 -0.064940 -0.485289
v 0.344967 -0.070270 -0.502198
v 0.345838 -0.072078 -0.520000
v 0.344967 -0.070270 -0.537802
v 0.342400 -0.064940 -0.554711
v 0.338265 -0.056352 -0.569879
v 0.332769 -0.044940 -0.582546
v 0.326187 -0.031273 -0.592077
v 0.318851 -0.016039 -0.597994
v 0.315088 -0.017355 -0.442006
v 0.318851 -0.033840 -0.447922
v 0.322226 -0.048629 -0.457453
v 0.325045 -0.060978 -0.470121
v 0.327166 -0.070270 -0.485289
v 0.328482 -0.076039 -0.502198
v 0.328929 -0.077994 -0.520000
v 0.328482 -0.076039 -0.537802
v 0.327166 -0.070270 -0.554711
v 0.325045 -0.060978 -0.569879
v 0.322226 -0.048629 -0.582546
v 0.318851 -0.033840 -0.592077
v 0.315088 -0.017355 -0.597994
v 0.311127 -0.017802 -0.442006
v 0.311127 -0.034711 -0.447922
v 0.311127 -0.049879 -0.457453
v 0.311127 -0.062546 -0.470121
v 0.311127 -0.072078 -0.485289
v 0.311127 -0.077994 -0.502198
v 0.311127 -0.080000 -0.520000
v 0.311127 -0.077994 -0.537802
v 0.311127 -0.072078 -0.554711
v 0.311127 -0.062546 -0.569879
v 0.311127 -0.049879 -0.582546
v 0.311127 -0.034711 -0.592077
v 0.311127 -0.017802 -0.597994
v 0.307166 -0.017355 -0.442006
v 0.303403 -0.033840 -0.447922
v 0.300028 -0.048629 -0.457453
v 0.297209 -0.060978 -0.470121
v 0.295088 -0.070270 -0.485289
v 0.293772 -0.076039 -0.502198
v 0.293325 -0.077994 -0.520000
v 0.293772 -0.076039 -0.537802
v 0.295088 -0.070270 -0.554711
v 0.297209 -0.060978 -0.569879
v 0.300028 -0.048629 -0.582546
v 0.303403 -0.033840 -0.592077
v 0.307166 -0.017355 -0.597994
v 0.303403 -0.016039 -0.442006
v 0.296067 -0.031273 -0.447922
v 0.289485 -0.044940 -0.457453
v 0.283989 -0.056352 -0.470121
v 0.279854 -0.064940 -0.485289
v 0.277287 -0.070270 -0.502198
v 0.276416 -0.072078 -0.520000
v 0.277287 -0.070270 -0.537802
v 0.279854 -0.064940 -0.554711
v 0.283989 -0.056352 -0.569879
v 0.289485 -0.044940 -0.582546
v 0.296067 -0.031273 -0.592077
v 0.303403 -0.016039 -0.597994
v 0.300028 -0.013918 -0.442006
v 0.289485 -0.027138 -0.447922
v 0.280028 -0.038997 -0.457453
v 0.272130 -0.048901 -0.470121
v 0.266187 -0.056352 -0.485289
v 0.262498 -0.060978 -0.502198
v 0.261248 -0.062547 -0.520000
v 0.262498 -0.060978 -0.537802
v 0.266187 -0.056352 -0.554711
v 0.272130 -0.048901 -0.569879
v 0.280028 -0.038997 -0.582546
v 0.289485 -0.027138 -0.592077
v 0.300028 -0.013918 -0.597994
v 0.297209 -0.011099 -0.442006
v 0.283989 -0.021642 -0.447922
v 0.272130 -0.031099 -0.457453
v 0.262226 -0.038997 -0.470121
v 0.254775 -0.044940 -0.485289
v 0.250149 -0.048629 -0.502198
v 0.248580 -0.049879 -0.520000
v 0.250149 -0.048629 -0.537802
v 0.254775 -0.044940 -0.554711
v 0.262226 -0.038997 -0.569879
v 0.272130 -0.031099 -0.582546
v 0.283989 -0.021642 -0.592077
v 0.297209 -0.011099 -0.597994
v 0.295088 -0.007724 -0.442006
v 0.279854 -0.015060 -0.447922
v 0.266187 -0.021642 -0.457453
v 0.254775 -0.027138 -0.470121
v 0.246187 -0.031273 -0.485289
v 0.240857 -0.033840 -0.502198
v 0.239049 -0.034711 -0.520000
v 0.240857 -0.033840 -0.537802
v 0.246187 -0.031273 -0.554711
v 0.254775 -0.027138 -0.569879
v 0.266187 -0.021642 -0.582546
v 0.279854 -0.015060 -0.592077
v 0.295088 -0.007724 -0.597994
v 0.293772 -0.003961 -0.442006
v 0.277287 -0.007724 -0.447922
v 0.262498 -0.011099 -0.457453
v 0.250149 -0.013918 -0.470121
v 0.240857 -0.016039 -0.485289
v 0.235088 -0.017355 -0.502198
v 0.233133 -0.017802 -0.520000
v 0.235088 -0.017355 -0.537802
v 0.240857 -0.016039 -0.554711
v 0.250149 -0.013918 -0.569879
v 0.262498 -0.011099 -0.582546
v 0.277287 -0.007724 -0.592077
v 0.293772 -0.003961 -0.597994
v 0.293325 0.000000 -0.442006
v 0.276416 -0.000000 -0.447922
v 0.261248 0.000000 -0.457453
v 0.248580 0.000000 -0.470121
v 0.239049 -0.000000 -0.485289
v 0.233133 0.000000 -0.502198
v 0.231127 -0.000000 -0.520000
v 0.233133 0.000000 -0.537802
v 0.239049 -0.000000 -0.554711
v 0.248580 0.000000 -0.569879
v 0.261248 0.000000 -0.582546
v 0.276416 -0.000000 -0.592077
v 0.293325 0.000000 -0.597994
v 0.293772 0.003961 -0.442006
v 0.277287 0.007724 -0.447922
v 0.262498 0.011099 -0.457453
v 0.250149 0.013918 -0.470121
v 0.240857 0.016039 -0.485289
v 0.235088 0.017355 -0.502198
v 0.233133 0.017802 -0.520000
v 0.235088 0.017355 -0.537802
v 0.240857 0.016039 -0.554711
v 0.250149 0.013918 -0.569879
v 0.262498 0.011099 -0.582546
v 0.277287 0.007724 -0.592077
v 0.293772 0.003961 -0.597994
v 0.295088 0.007724 -0.442006
v 0.279854 0.015060 -0.447922
v 0.266187 0.021642 -0.457453
v 0.254775 0.027138 -0.470121
v 0.246187 0.031273 -0.485289
v 0.240857 0.033840 -0.502198
v 0.239049 0.034711 -0.520000
v 0.240857 0.033840 -0.537802
v 0.246187 0.031273 -0.554711
v 0.254775 0.027138 -0.569879
v 0.266187 0.021642 -0.582546
v 0.279854 0.015060 -0.592077
v 0.295088 0.007724 -0.597994
v 0.297209 0.011099 -0.442006
v 0.283989 0.021642 -0.447922
v 0.272130 0.031099 -0.457453
v 0.262226 0.038997 -0.470121
v 0.254775 0.044940 -0.485289
v 0.250149 0.048629 -0.502198
v 0.248580 0.049879 -0.520000
v 0.250149 0.048629 -0.537802
v 0.254775 0.044940 -0.554711
v 0.262226 0.038997 -0.569879
v 0.272130 0.031099 -0.582546
v 0.283989 0.021642 -0.592077
v 0.297209 0.011099 -0.597994
v 0.300028 0.013918 -0.442006
v 0.289485 0.027138 -0.447922
v 0.280028 0.038997 -0.457453
v 0.272130 0.048901 -0.470121
v 0.266187 0.056352 -0.485289
v 0.262498 0.060978 -0.502198
v 0.261248 0.062547 -0.520000
v 0.262498 0.060978 -0.537802
v 0.266187 0.056352 -0.554711
v 0.272130 0.048901 -0.569879
v 0.280028 0.038997 -0.582546
v 0.289485 0.027138 -0.592077
v 0.300028 0.013918 -0.597994
v 0.303403 0.016039 -0.442006
v 0.296067 0.031273 -0.447922
v 0.289485 0.044940 -0.457453
v 0.283989 0.056352 -0.470121
v 0.279854 0.064940 -0.485289
v 0.277287 0.070270 -0.502198
v 0.276416 0.072078 -0.520000
v 0.277287 0.070270 -0.537802
v 0.279854 0.064940 -0.554711
v 0.283989 0.056352 -0.569879
v 0.289485 0.044940 -0.582546
v 0.296067 0.031273 -0.592077
v 0.303403 0.016039 -0.597994
v 0.307166 0.017355 -0.442006
v 0.303403 0.033840 -0.447922
v 0.300028 0.048629 -0.457453
v 0.297209 0.060978 -0.470121
v 0.295088 0.070270 -0.485289
v 0.293772 0.076039 -0.502198
v 0.293325 0.077994 -0.520000
v 0.293772 0.076039 -0.537802
v 0.295088 0.070270 -0.554711
v 0.297209 0.060978 -0.569879
v 0.300028 0.048629 -0.582546
v 0.303403 0.033840 -0.592077
v 0.307166 0.017355 -0.597994
v 0.311127 0.034711 -0.447922
v 0.311127 0.049879 -0.457453
v 0.311127 0.072078 -0.485289
v 0.311127 0.080000 -0.520000
v 0.311127 0.072078 -0.554711
v 0.311127 0.049879 -0.582546
v 0.311127 0.034711 -0.592077
vn 0.00182 0.90094 -0.43394
vn 0.00093 0.97492 -0.22255
vn 0.21785 0.95027 -0.22255
vn 0.20225 0.87795 -0.43394
vn -0.00380 0.43382 0.90099
vn -0.00749 0.24439 0.96965
vn 0.04708 0.23993 0.96965
vn 0.09283 0.42379 0.90099
vn 0.00262 0.78178 -0.62355
vn 0.17652 0.76160 -0.62355
vn -0.00329 0.62343 0.78188
vn 0.13552 0.60853 0.78188
vn 0.00329 0.62343 -0.78188
vn 0.14194 0.60706 -0.78188
vn -0.00262 0.78178 0.62355
vn 0.17141 0.76276 0.62355
vn 0.00380 0.43383 -0.90099
vn 0.10024 0.42210 -0.90099
vn -0.00182 0.90094 0.43394
vn 0.19871 0.87876 0.43394
vn 0.00749 0.24439 -0.96965
vn 0.06168 0.23660 -0.96965
vn -0.00093 0.97492 0.22255
vn 0.21603 0.95068 0.22255
vn 0.00000 -0.00000 -1.00000
vn 0.00000 1.00000 -0.00000
vn 0.22252 0.97493 0.00000
vn -0.00000 0.00000 1.00000
vn 0.39254 0.81093 -0.43394
vn 0.34156 0.70322 -0.62355
vn 0.18480 0.39251 0.90099
vn 0.26753 0.56312 0.78188
vn 0.27346 0.56026 -0.78188
vn 0.33684 0.70550 0.62355
vn 0.19166 0.38921 -0.90099
vn 0.38927 0.81251 0.43394
vn 0.11278 0.21694 -0.96965
vn 0.42216 0.87878 0.22255
vn 0.43388 0.90097 0.00000
vn 0.42384 0.87797 -0.22255
vn 0.09929 0.22343 0.96965
vn 0.26751 0.34155 0.90099
vn 0.38613 0.48947 0.78188
vn 0.48948 0.60959 -0.62355
vn 0.39127 0.48536 -0.78188
vn 0.48539 0.61285 0.62355
vn 0.27346 0.33681 -0.90099
vn 0.56031 0.70552 0.43394
vn 0.15823 0.18640 -0.96965
vn 0.60712 0.76280 0.22255
vn 0.62349 0.78183 -0.00000
vn 0.60858 0.76164 -0.22255
vn 0.14652 0.19574 0.96965
vn 0.56315 0.70325 -0.43394
vn 0.61285 0.48538 -0.62355
vn 0.48947 0.38613 -0.78188
vn 0.48536 0.39127 0.78188
vn 0.60959 0.48948 0.62355
vn 0.34155 0.26751 -0.90099
vn 0.70325 0.56315 0.43394
vn 0.19574 0.14652 -0.96965
vn 0.76164 0.60858 0.22255
vn 0.78183 0.62349 0.00000
vn 0.76280 0.60712 -0.22255
vn 0.18640 0.15823 0.96965
vn 0.70552 0.56031 -0.43394
vn 0.33681 0.27346 0.90099
vn 0.56026 0.27346 0.78188
vn 0.70322 0.34156 0.62355
vn 0.56312 0.26753 -0.78188
vn 0.39251 0.18480 -0.90099
vn 0.81093 0.39254 0.43394
vn 0.22343 0.09929 -0.96965
vn 0.87797 0.42384 0.22255
vn 0.90097 0.43388 0.00000
vn 0.87878 0.42216 -0.22255
vn 0.21694 0.11278 0.96965
vn 0.81251 0.38927 -0.43394
vn 0.38921 0.19166 0.90099
vn 0.70550 0.33684 -0.62355
vn 0.60853 0.13552 -0.78187
vn 0.42379 0.09283 -0.90099
vn 0.76160 0.17652 0.62355
vn 0.87795 0.20225 0.43394
vn 0.23993 0.04708 -0.96965
vn 0.95027 0.21785 0.22255
vn 0.97493 0.22252 -0.00000
vn 0.95068 0.21603 -0.22255
vn 0.23660 0.06168 0.96965
vn 0.87876 0.19871 -0.43394
vn 0.42210 0.10024 0.90099
vn 0.76276 0.17141 -0.62355
vn 0.60706 0.14194 0.78188
vn 0.43383 -0.00380 -0.90099
vn 0.24439 -0.00749 -0.96965
vn 0.90094 0.00182 0.43394
vn 0.97492 0.00093 0.22255
vn 1.00000 -0.00000 -0.00000
vn 0.97492 -0.00093 -0.22255
vn 0.24439 0.00749 0.96965
vn 0.90094 -0.00182 -0.43394
vn 0.43382 0.00380 0.90099
vn 0.78178 -0.00262 -0.62355
vn 0.62343 0.00329 0.78188
vn 0.62343 -0.00329 -0.78188
vn 0.78178 0.00262 0.62355
vn 0.87876 -0.19871 0.43394
vn 0.95068 -0.21603 0.22255
vn 0.23660 -0.06168 -0.96965
vn 0.97493 -0.22252 0.00000
vn 0.95027 -0.21785 -0.22255
vn 0.23993 -0.04708 0.96965
vn 0.87795 -0.20225 -0.43394
vn 0.42379 -0.09283 0.90099
vn 0.76160 -0.17652 -0.62355
vn 0.60853 -0.13552 0.78188
vn 0.60706 -0.14194 -0.78188
vn 0.76276 -0.17141 0.62355
vn 0.42210 -0.10024 -0.90099
vn 0.21694 -0.11278 -0.96965
vn 0.87878 -0.42216 0.22255
vn 0.90097 -0.43388 0.00000
vn 0.87797 -0.42384 -0.22255
vn 0.22343 -0.09929 0.96965
vn 0.81093 -0.39254 -0.43394
vn 0.39251 -0.18480 0.90099
vn 0.70322 -0.34156 -0.62355
vn 0.56312 -0.26753 0.78188
vn 0.56026 -0.27346 -0.78188
vn 0.70550 -0.33684 0.62355
vn 0.38921 -0.19166 -0.90099
vn 0.81251 -0.38927 0.43394
vn 0.76280 -0.60712 0.22255
vn 0.78183 -0.62349 -0.00000
vn 0.76164 -0.60858 -0.22255
vn 0.19574 -0.14652 0.96965
vn 0.70325 -0.56315 -0.43394
vn 0.34155 -0.26751 0.90099
vn 0.60959 -0.48948 -0.62355
vn 0.48947 -0.38613 0.78188
vn 0.48536 -0.39127 -0.78187
vn 0.61285 -0.48539 0.62355
vn 0.33681 -0.27346 -0.90099
vn 0.70552 -0.56031 0.43394
vn 0.18640 -0.15823 -0.96965
vn 0.62349 -0.78183 -0.00000
vn 0.60713 -0.76280 -0.22255
vn 0.15823 -0.18640 0.96965
vn 0.56031 -0.70552 -0.43394
vn 0.27346 -0.33681 0.90099
vn 0.48539 -0.61285 -0.62355
vn 0.39127 -0.48536 0.78188
vn 0.38613 -0.48947 -0.78188
vn 0.48948 -0.60959 0.62355
vn 0.26751 -0.34155 -0.90099
vn 0.56315 -0.70325 0.43394
vn 0.14652 -0.19574 -0.96965
vn 0.60858 -0.76164 0.22255
vn 0.11278 -0.21694 0.96965
vn 0.42216 -0.87878 -0.22255
vn 0.38927 -0.81251 -0.43394
vn 0.19166 -0.38921 0.90099
vn 0.33684 -0.70550 -0.62355
vn 0.27346 -0.56026 0.78188
vn 0.26753 -0.56312 -0.78188
vn 0.34156 -0.70322 0.62355
vn 0.18480 -0.39251 -0.90099
vn 0.39254 -0.81093 0.43394
vn 0.09929 -0.22343 -0.96965
vn 0.42384 -0.87797 0.22255
vn 0.43388 -0.90097 -0.00000
vn 0.21603 -0.95068 -0.22255
vn 0.19871 -0.87876 -0.43394
vn 0.06168 -0.23660 0.96965
vn 0.10024 -0.42210 0.90099
vn 0.17141 -0.76276 -0.62355
vn 0.14194 -0.60706 0.78188
vn 0.13552 -0.60853 -0.78188
vn 0.17652 -0.76160 0.62355
vn 0.09283 -0.42379 -0.90099
vn 0.20225 -0.87795 0.43394
vn 0.04708 -0.23993 -0.96965
vn 0.21785 -0.95027 0.22255
vn 0.22252 -0.97493 0.00000
vn 0.00749 -0.24439 0.96965
vn 0.00380 -0.43382 0.90099
vn -0.00182 -0.90094 -0.43394
vn -0.00262 -0.78178 -0.62355
vn 0.00329 -0.62343 0.78188
vn -0.00329 -0.62343 -0.78188
vn 0.00262 -0.78178 0.62355
vn -0.00380 -0.43383 -0.90099
vn 0.00182 -0.90094 0.43394
vn -0.00749 -0.24439 -0.96965
vn 0.00093 -0.97492 0.22255
vn -0.00000 -1.00000 0.00000
vn -0.00093 -0.97492 -0.22255
vn -0.20225 -0.87795 -0.43394
vn -0.17652 -0.76160 -0.62355
vn -0.09283 -0.42379 0.90099
vn -0.13552 -0.60853 0.78188
vn -0.14194 -0.60706 -0.78188
vn -0.17141 -0.76276 0.62355
vn -0.10024 -0.42210 -0.90099
vn -0.19871 -0.87876 0.43394
vn -0.06168 -0.23660 -0.96965
vn -0.21603 -0.95068 0.22255
vn -0.22252 -0.97493 -0.00000
vn -0.21785 -0.95027 -0.22255
vn -0.04708 -0.23993 0.96965
vn -0.34156 -0.70322 -0.62355
vn -0.27346 -0.56026 -0.78188
vn -0.26753 -0.56312 0.78188
vn -0.33684 -0.70550 0.62355
vn -0.19166 -0.38921 -0.90099
vn -0.38927 -0.81251 0.43394
vn -0.11278 -0.21694 -0.96965
vn -0.42216 -0.87878 0.22255
vn -0.43388 -0.90097 -0.00000
vn -0.42384 -0.87797 -0.22255
vn -0.09929 -0.22343 0.96965
vn -0.39254 -0.81093 -0.43394
vn -0.18480 -0.39251 0.90099
vn -0.38613 -0.48947 0.78188
vn -0.48539 -0.61285 0.62355
vn -0.39127 -0.48536 -0.78188
vn -0.27346 -0.33681 -0.90099
vn -0.56031 -0.70552 0.43394
vn -0.15823 -0.18640 -0.96965
vn -0.60712 -0.76280 0.22255
vn -0.62349 -0.78183 -0.00000
vn -0.60858 -0.76164 -0.22255
vn -0.14652 -0.19574 0.96965
vn -0.56315 -0.70325 -0.43394
vn -0.26751 -0.34155 0.90099
vn -0.48948 -0.60959 -0.62355
vn -0.48947 -0.38613 -0.78187
vn -0.34155 -0.26751 -0.90099
vn -0.60959 -0.48948 0.62355
vn -0.70325 -0.56315 0.43394
vn -0.19574 -0.14652 -0.96965
vn -0.76164 -0.60858 0.22255
vn -0.78183 -0.62349 0.00000
vn -0.76280 -0.60712 -0.22255
vn -0.18640 -0.15823 0.96965
vn -0.70552 -0.56031 -0.43394
vn -0.33681 -0.27346 0.90099
vn -0.61285 -0.48538 -0.62355
vn -0.48536 -0.39127 0.78187
vn -0.70322 -0.34156 0.62355
vn -0.81093 -0.39254 0.43394
vn -0.39251 -0.18480 -0.90099
vn -0.22343 -0.09929 -0.96965
vn -0.87797 -0.42384 0.22255
vn -0.90097 -0.43388 0.00000
vn -0.87878 -0.42216 -0.22255
vn -0.21694 -0.11278 0.96965
vn -0.81251 -0.38927 -0.43394
vn -0.38921 -0.19166 0.90099
vn -0.70550 -0.33684 -0.62355
vn -0.56026 -0.27346 0.78187
vn -0.56312 -0.26753 -0.78187
vn -0.42379 -0.09283 -0.90099
vn -0.23993 -0.04708 -0.96965
vn -0.87795 -0.20225 0.43394
vn -0.95027 -0.21785 0.22255
vn -0.97493 -0.22252 -0.00000
vn -0.95068 -0.21603 -0.22255
vn -0.23660 -0.06168 0.96965
vn -0.87876 -0.19871 -0.43394
vn -0.42210 -0.10024 0.90099
vn -0.76276 -0.17141 -0.62355
vn -0.60706 -0.14194 0.78188
vn -0.60853 -0.13552 -0.78187
vn -0.76160 -0.17652 0.62355
vn -0.24439 0.00749 -0.96965
vn -0.97492 -0.00093 0.22255
vn -1.00000 0.00000 -0.00000
vn -0.97492 0.00093 -0.22255
vn -0.24439 -0.00749 0.96965
vn -0.90094 0.00182 -0.43394
vn -0.43382 -0.00380 0.90099
vn -0.78178 0.00262 -0.62355
vn -0.62343 -0.00329 0.78188
vn -0.62343 0.00329 -0.78188
vn -0.78178 -0.00262 0.62355
vn -0.43383 0.00380 -0.90099
vn -0.90094 -0.00182 0.43394
vn -0.95068 0.21603 0.22255
vn -0.97493 0.22252 0.00000
vn -0.95027 0.21785 -0.22255
vn -0.23993 0.04708 0.96965
vn -0.87795 0.20225 -0.43394
vn -0.42379 0.09283 0.90099
vn -0.76160 0.17652 -0.62355
vn -0.60853 0.13552 0.78188
vn -0.60706 0.14194 -0.78188
vn -0.76276 0.17141 0.62355
vn -0.42210 0.10024 -0.90099
vn -0.87876 0.19871 0.43394
vn -0.23660 0.06168 -0.96965
vn -0.90097 0.43388 0.00000
vn -0.87797 0.42384 -0.22255
vn -0.22343 0.09929 0.96965
vn -0.81093 0.39254 -0.43394
vn -0.39251 0.18480 0.90099
vn -0.70322 0.34156 -0.62355
vn -0.56312 0.26753 0.78188
vn -0.56026 0.27346 -0.78187
vn -0.70550 0.33684 0.62355
vn -0.38921 0.19166 -0.90099
vn -0.81251 0.38927 0.43394
vn -0.21694 0.11278 -0.96965
vn -0.87878 0.42216 0.22255
vn -0.78183 0.62349 -0.00000
vn -0.76164 0.60858 -0.22255
vn -0.19574 0.14652 0.96965
vn -0.70325 0.56315 -0.43394
vn -0.34155 0.26751 0.90099
vn -0.60959 0.48948 -0.62355
vn -0.48947 0.38613 0.78188
vn -0.48536 0.39127 -0.78187
vn -0.61285 0.48539 0.62355
vn -0.33681 0.27346 -0.90099
vn -0.70552 0.56031 0.43394
vn -0.18640 0.15823 -0.96965
vn -0.76280 0.60712 0.22255
vn -0.60713 0.76280 -0.22255
vn -0.56031 0.70552 -0.43394
vn -0.15823 0.18640 0.96965
vn -0.27346 0.33681 0.90099
vn -0.48538 0.61285 -0.62355
vn -0.39127 0.48536 0.78187
vn -0.38613 0.48947 -0.78187
vn -0.48948 0.60959 0.62355
vn -0.26751 0.34155 -0.90099
vn -0.56315 0.70325 0.43394
vn -0.14652 0.19574 -0.96965
vn -0.60858 0.76164 0.22255
vn -0.62349 0.78183 -0.00000
vn -0.11278 0.21694 0.96965
vn -0.19166 0.38921 0.90099
vn -0.38927 0.81251 -0.43394
vn -0.33684 0.70550 -0.62355
vn -0.27346 0.56026 0.78187
vn -0.26753 0.56312 -0.78187
vn -0.34156 0.70322 0.62355
vn -0.18480 0.39251 -0.90099
vn -0.39254 0.81093 0.43394
vn -0.09929 0.22343 -0.96965
vn -0.42384 0.87797 0.22255
vn -0.43388 0.90097 -0.00000
vn -0.42216 0.87878 -0.22255
vn -0.19871 0.87876 -0.43394
vn -0.17141 0.76276 -0.62355
vn -0.10024 0.42210 0.90099
vn -0.14194 0.60706 0.78188
vn -0.13552 0.60853 -0.78187
vn -0.17652 0.76160 0.62355
vn -0.09283 0.42379 -0.90099
vn -0.20225 0.87795 0.43394
vn -0.04708 0.23993 -0.96965
vn -0.21785 0.95027 0.22255
vn -0.22252 0.97493 -0.00000
vn -0.21603 0.95068 -0.22255
vn -0.06168 0.23660 0.96965
f 364//1 5//2 16//3
f 364//1 16//3 17//4
f 360//5 2//6 9//7
f 360//5 9//7 10//8
f 6//9 364//1 17//4
f 6//9 17//4 18//10
f 361//11 360//5 10//8
f 361//11 10//8 11//12
f 365//13 6//9 18//10
f 365//13 18//10 19//14
f 3//15 361//11 11//12
f 3//15 11//12 12//16
f 366//17 365//13 19//14
f 366//17 19//14 20//18
f 362//19 3//15 12//16
f 362//19 12//16 13//20
f 7//21 366//17 20//18
f 7//21 20//18 21//22
f 4//23 362//19 13//20
f 4//23 13//20 14//24
f 8//25 7//21 21//22
f 363//26 4//23 14//24
f 363//26 14//24 15//27
f 5//2 363//26 15//27
f 5//2 15//27 16//3
f 2//6 1//28 9//7
f 18//10 17//4 30//29
f 18//10 30//29 31//30
f 11//12 10//8 23//31
f 11//12 23//31 24//32
f 19//14 18//10 31//30
f 19//14 31//30 32//33
f 12//16 11//12 24//32
f 12//16 24//32 25//34
f 20//18 19//14 32//33
f 20//18 32//33 33//35
f 13//20 12//16 25//34
f 13//20 25//34 26//36
f 21//22 20//18 33//35
f 21//22 33//35 34//37
f 14//24 13//20 26//36
f 14//24 26//36 27//38
f 8//25 21//22 34//37
f 15//27 14//24 27//38
f 15//27 27//38 28//39
f 16//3 15//27 28//39
f 16//3 28//39 29//40
f 9//7 1//28 22//41
f 17//4 16//3 29//40
f 17//4 29//40 30//29
f 10//8 9//7 22//41
f 10//8 22//41 23//31
f 24//32 23//31 36//42
f 24//32 36//42 37//43
f 32//33 31//30 44//44
f 32//33 44//44 45//45
f 25//34 24//32 37//43
f 25//34 37//43 38//46
f 33//35 32//33 45//45
f 33//35 45//45 46//47
f 26//36 25//34 38//46
f 26//36 38//46 39//48
f 34//37 33//35 46//47
f 34//37 46//47 47//49
f 27//38 26//36 39//48
f 27//38 39//48 40//50
f 8//25 34//37 47//49
f 28//39 27//38 40//50
f 28//39 40//50 41//51
f 29//40 28//39 41//51
f 29//40 41//51 42//52
f 22//41 1//28 35//53
f 30//29 29//40 42//52
f 30//29 42//52 43//54
f 23//31 22//41 35//53
f 23//31 35//53 36//42
f 31//30 30//29 43//54
f 31//30 43//54 44//44
f 45//45 44//44 57//55
f 45//45 57//55 58//56
f 38//46 37//43 50//57
f 38//46 50//57 51//58
f 46//47 45//45 58//56
f 46//47 58//56 59//59
f 39//48 38//46 51//58
f 39//48 51//58 52//60
f 47//49 46//47 59//59
f 47//49 59//59 60//61
f 40//50 39//48 52//60
f 40//50 52//60 53//62
f 8//25 47//49 60//61
f 41//51 40//50 53//62
f 41//51 53//62 54//63
f 42//52 41//51 54//63
f 42//52 54//63 55//64
f 35//53 1//28 48//65
f 43//54 42//52 55//64
f 43//54 55//64 56//66
f 36//42 35//53 48//65
f 36//42 48//65 49//67
f 44//44 43//54 56//66
f 44//44 56//66 57//55
f 37//43 36//42 49//67
f 37//43 49//67 50//57
f 51//58 50//57 63//68
f 51//58 63//68 64//69
f 59//59 58//56 71//70
f 59//59 71//70 72//71
f 52//60 51//58 64//69
f 52//60 64//69 65//72
f 60//61 59//59 72//71
f 60//61 72//71 73//73
f 53//62 52//60 65//72
f 53//62 65//72 66//74
f 8//25 60//61 73//73
f 54//63 53//62 66//74
f 54//63 66//74 67//75
f 55//64 54//63 67//75
f 55//64 67//75 68//76
f 48//65 1//28 61//77
f 56//66 55//64 68//76
f 56//66 68//76 69//78
f 49//67 48//65 61//77
f 49//67 61//77 62//79
f 57//55 56//66 69//78
f 57//55 69//78 70//80
f 50//57 49//67 62//79
f 50//57 62//79 63//68
f 58//56 57//55 70//80
f 58//56 70//80 71//70
f 72//71 71//70 84//81
f 72//71 84//81 85//82
f 65//72 64//69 77//83
f 65//72 77//83 78//84
f 73//73 72//71 85//82
f 73//73 85//82 86//85
f 66//74 65//72 78//84
f 66//74 78//84 79//86
f 8//25 73//73 86//85
f 67//75 66//74 79//86
f 67//75 79//86 80//87
f 68//76 67//75 80//87
f 68//76 80//87 81//88
f 61//77 1//28 74//89
f 69//78 68//76 81//88
f 69//78 81//88 82//90
f 62//79 61//77 74//89
f 62//79 74//89 75//91
f 70//80 69//78 82//90
f 70//80 82//90 83//92
f 63//68 62//79 75//91
f 63//68 75//91 76//93
f 71//70 70//80 83//92
f 71//70 83//92 84//81
f 64//69 63//68 76//93
f 64//69 76//93 77//83
f 86//85 85//82 98//94
f 86//85 98//94 99//95
f 79//86 78//84 91//96
f 79//86 91//96 92//97
f 8//25 86//85 99//95
f 80//87 79//86 92//97
f 80//87 92//97 93//98
f 81//88 80//87 93//98
f 81//88 93//98 94//99
f 74//89 1//28 87//100
f 82//90 81//88 94//99
f 82//90 94//99 95//101
f 75//91 74//89 87//100
f 75//91 87//100 88//102
f 83//92 82//90 95//101
f 83//92 95//101 96//103
f 76//93 75//91 88//102
f 76//93 88//102 89//104
f 84//81 83//92 96//103
f 84//81 96//103 97//105
f 77//83 76//93 89//104
f 77//83 89//104 90//106
f 85//82 84//81 97//105
f 85//82 97//105 98//94
f 78//84 77//83 90//106
f 78//84 90//106 91//96
f 92//97 91//96 104//107
f 92//97 104//107 105//108
f 8//25 99//95 112//109
f 93//98 92//97 105//108
f 93//98 105//108 106//110
f 94//99 93//98 106//110
f 94//99 106//110 107//111
f 87//100 1//28 100//112
f 95//101 94//99 107//111
f 95//101 107//111 108//113
f 88//102 87//100 100//112
f 88//102 100//112 101//114
f 96//103 95//101 108//113
f 96//103 108//113 109//115
f 89//104 88//102 101//114
f 89//104 101//114 102//116
f 97//105 96//103 109//115
f 97//105 109//115 110//117
f 90//106 89//104 102//116
f 90//106 102//116 103//118
f 98//94 97//105 110//117
f 98//94 110//117 111//119
f 91//96 90//106 103//118
f 91//96 103//118 104//107
f 99//95 98//94 111//119
f 99//95 111//119 112//109
f 8//25 112//109 125//120
f 106//110 105//108 118//121
f 106//110 118//121 119//122
f 107//111 106//110 119//122
f 107//111 119//122 120//123
f 100//112 1//28 113//124
f 108//113 107//111 120//123
f 108//113 120//123 121//125
f 101//114 100//112 113//124
f 101//114 113//124 114//126
f 109//115 108//113 121//125
f 109//115 121//125 122//127
f 102//116 101//114 114//126
f 102//116 114//126 115//128
f 110//117 109//115 122//127
f 110//117 122//127 123//129
f 103//118 102//116 115//128
f 103//118 115//128 116//130
f 111//119 110//117 123//129
f 111//119 123//129 124//131
f 104//107 103//118 116//130
f 104//107 116//130 117//132
f 112//109 111//119 124//131
f 112//109 124//131 125//120
f 105//108 104//107 117//132
f 105//108 117//132 118//121
f 119//122 118//121 131//133
f 119//122 131//133 132//134
f 120//123 119//122 132//134
f 120//123 132//134 133//135
f 113//124 1//28 126//136
f 121//125 120//123 133//135
f 121//125 133//135 134//137
f 114//126 113//124 126//136
f 114//126 126//136 127//138
f 122//127 121//125 134//137
f 122//127 134//137 135//139
f 115//128 114//126 127//138
f 115//128 127//138 128//140
f 123//129 122//127 135//139
f 123//129 135//139 136//141
f 116//130 115//128 128//140
f 116//130 128//140 129//142
f 124//131 123//129 136//141
f 124//131 136//141 137//143
f 117//132 116//130 129//142
f 117//132 129//142 130//144
f 125//120 124//131 137//143
f 125//120 137//143 138//145
f 118//121 117//132 130//144
f 118//121 130//144 131//133
f 8//25 125//120 138//145
f 133//135 132//134 145//146
f 133//135 145//146 146//147
f 126//136 1//28 139//148
f 134//137 133//135 146//147
f 134//137 146//147 147//149
f 127//138 126//136 139//148
f 127//138 139//148 140//150
f 135//139 134//137 147//149
f 135//139 147//149 148//151
f 128//140 127//138 140//150
f 128//140 140//150 141//152
f 136//141 135//139 148//151
f 136//141 148//151 149//153
f 129//142 128//140 141//152
f 129//142 141//152 142//154
f 137//143 136//141 149//153
f 137//143 149//153 150//155
f 130//144 129//142 142//154
f 130//144 142//154 143//156
f 138//145 137//143 150//155
f 138//145 150//155 151//157
f 131//133 130//144 143//156
f 131//133 143//156 144//158
f 8//25 138//145 151//157
f 132//134 131//133 144//158
f 132//134 144//158 145//146
f 139//148 1//28 152//159
f 147//149 146//147 159//160
f 147//149 159//160 160//161
f 140//150 139//148 152//159
f 140//150 152//159 153//162
f 148//151 147//149 160//161
f 148//151 160//161 161//163
f 141//152 140//150 153//162
f 141//152 153//162 154//164
f 149//153 148//151 161//163
f 149//153 161//163 162//165
f 142//154 141//152 154//164
f 142//154 154//164 155//166
f 150//155 149//153 162//165
f 150//155 162//165 163//167
f 143//156 142//154 155//166
f 143//156 155//166 156//168
f 151//157 150//155 163//167
f 151//157 163//167 164//169
f 144//158 143//156 156//168
f 144//158 156//168 157//170
f 8//25 151//157 164//169
f 145//146 144//158 157//170
f 145//146 157//170 158//171
f 146//147 145//146 158//171
f 146//147 158//171 159//160
f 160//161 159//160 172//172
f 160//161 172//172 173//173
f 153//162 152//159 165//174
f 153//162 165//174 166//175
f 161//163 160//161 173//173
f 161//163 173//173 174//176
f 154//164 153//162 166//175
f 154//164 166//175 167//177
f 162//165 161//163 174//176
f 162//165 174//176 175//178
f 155//166 154//164 167//177
f 155//166 167//177 168//179
f 163//167 162//165 175//178
f 163//167 175//178 176//180
f 156//168 155//166 168//179
f 156//168 168//179 169//181
f 164//169 163//167 176//180
f 164//169 176//180 177//182
f 157//170 156//168 169//181
f 157//170 169//181 170//183
f 8//25 164//169 177//182
f 158//171 157//170 170//183
f 158//171 170//183 171//184
f 159//160 158//171 171//184
f 159//160 171//184 172//172
f 152//159 1//28 165//174
f 166//175 165//174 178//185
f 166//175 178//185 179//186
f 174//176 173//173 186//187
f 174//176 186//187 187//188
f 167//177 166//175 179//186
f 167//177 179//186 180//189
f 175//178 174//176 187//188
f 175//178 187//188 188//190
f 168//179 167//177 180//189
f 168//179 180//189 181//191
f 176//180 175//178 188//190
f 176//180 188//190 189//192
f 169//181 168//179 181//191
f 169//181 181//191 182//193
f 177//182 176//180 189//192
f 177//182 189//192 190//194
f 170//183 169//181 182//193
f 170//183 182//193 183//195
f 8//25 177//182 190//194
f 171//184 170//183 183//195
f 171//184 183//195 184//196
f 172//172 171//184 184//196
f 172//172 184//196 185//197
f 165//174 1//28 178//185
f 173//173 172//172 185//197
f 173//173 185//197 186//187
f 187//188 186//187 199//198
f 187//188 199//198 200//199
f 180//189 179//186 192//200
f 180//189 192//200 193//201
f 188//190 187//188 200//199
f 188//190 200//199 201//202
f 181//191 180//189 193//201
f 181//191 193//201 194//203
f 189//192 188//190 201//202
f 189//192 201//202 202//204
f 182//193 181//191 194//203
f 182//193 194//203 195//205
f 190//194 189//192 202//204
f 190//194 202//204 203//206
f 183//195 182//193 195//205
f 183//195 195//205 196//207
f 8//25 190//194 203//206
f 184//196 183//195 196//207
f 184//196 196//207 197//208
f 185//197 184//196 197//208
f 185//197 197//208 198//209
f 178//185 1//28 191//210
f 186//187 185//197 198//209
f 186//187 198//209 199//198
f 179//186 178//185 191//210
f 179//186 191//210 192//200
f 201//202 200//199 213//211
f 201//202 213//211 214//212
f 194//203 193//201 206//213
f 194//203 206//213 207//214
f 202//204 201//202 214//212
f 202//204 214//212 215//215
f 195//205 194//203 207//214
f 195//205 207//214 208//216
f 203//206 202//204 215//215
f 203//206 215//215 216//217
f 196//207 195//205 208//216
f 196//207 208//216 209//218
f 8//25 203//206 216//217
f 197//208 196//207 209//218
f 197//208 209//218 210//219
f 198//209 197//208 210//219
f 198//209 210//219 211//220
f 191//210 1//28 204//221
f 199//198 198//209 211//220
f 199//198 211//220 212//222
f 192//200 191//210 204//221
f 192//200 204//221 205//223
f 200//199 199//198 212//222
f 200//199 212//222 213//211
f 193//201 192//200 205//223
f 193//201 205//223 206//213
f 207//214 206//213 219//224
f 207//214 219//224 220//225
f 215//215 214//212 227//226
f 215//215 227//226 228//227
f 208//216 207//214 220//225
f 208//216 220//225 221//228
f 216//217 215//215 228//227
f 216//217 228//227 229//229
f 209//218 208//216 221//228
f 209//218 221//228 222//230
f 8//25 216//217 229//229
f 210//219 209//218 222//230
f 210//219 222//230 223//231
f 211//220 210//219 223//231
f 211//220 223//231 224//232
f 204//221 1//28 217//233
f 212//222 211//220 224//232
f 212//222 224//232 225//234
f 205//223 204//221 217//233
f 205//223 217//233 218//235
f 213//211 212//222 225//234
f 213//211 225//234 226//236
f 206//213 205//223 218//235
f 206//213 218//235 219//224
f 214//212 213//211 226//236
f 214//212 226//236 227//226
f 228//227 227//226 240//237
f 228//227 240//237 241//238
f 221//228 220//225 233//239
f 221//228 233//239 234//240
f 229//229 228//227 241//238
f 229//229 241//238 242//241
f 222//230 221//228 234//240
f 222//230 234//240 235//242
f 8//25 229//229 242//241
f 223//231 222//230 235//242
f 223//231 235//242 236//243
f 224//232 223//231 236//243
f 224//232 236//243 237//244
f 217//233 1//28 230//245
f 225//234 224//232 237//244
f 225//234 237//244 238//246
f 218//235 217//233 230//245
f 218//235 230//245 231//247
f 226//236 225//234 238//246
f 226//236 238//246 239//248
f 219//224 218//235 231//247
f 219//224 231//247 232//249
f 227//226 226//236 239//248
f 227//226 239//248 240//237
f 220//225 219//224 232//249
f 220//225 232//249 233//239
f 234//240 233//239 246//250
f 234//240 246//250 247//251
f 242//241 241//238 254//252
f 242//241 254//252 255//253
f 235//242 234//240 247//251
f 235//242 247//251 248//254
f 8//25 242//241 255//253
f 236//243 235//242 248//254
f 236//243 248//254 249//255
f 237//244 236//243 249//255
f 237//244 249//255 250//256
f 230//245 1//28 243//257
f 238//246 237//244 250//256
f 238//246 250//256 251//258
f 231//247 230//245 243//257
f 231//247 243//257 244//259
f 239//248 238//246 251//258
f 239//248 251//258 252//260
f 232//249 231//247 244//259
f 232//249 244//259 245//261
f 240//237 239//248 252//260
f 240//237 252//260 253//262
f 233//239 232//249 245//261
f 233//239 245//261 246//250
f 241//238 240//237 253//262
f 241//238 253//262 254//252
f 255//253 254//252 267//263
f 255//253 267//263 268//264
f 248//254 247//251 260//265
f 248//254 260//265 261//266
f 8//25 255//253 268//264
f 249//255 248//254 261//266
f 249//255 261//266 262//267
f 250//256 249//255 262//267
f 250//256 262//267 263//268
f 243//257 1//28 256//269
f 251//258 250//256 263//268
f 251//258 263//268 264//270
f 244//259 243//257 256//269
f 244//259 256//269 257//271
f 252//260 251//258 264//270
f 252//260 264//270 265//272
f 245//261 244//259 257//271
f 245//261 257//271 258//273
f 253//262 252//260 265//272
f 253//262 265//272 266//274
f 246//250 245//261 258//273
f 246//250 258//273 259//275
f 254//252 253//262 266//274
f 254//252 266//274 267//263
f 247//251 246//250 259//275
f 247//251 259//275 260//265
f 8//25 268//264 281//276
f 262//267 261//266 274//277
f 262//267 274//277 275//278
f 263//268 262//267 275//278
f 263//268 275//278 276//279
f 256//269 1//28 269//280
f 264//270 263//268 276//279
f 264//270 276//279 277//281
f 257//271 256//269 269//280
f 257//271 269//280 270//282
f 265//272 264//270 277//281
f 265//272 277//281 278//283
f 258//273 257//271 270//282
f 258//273 270//282 271//284
f 266//274 265//272 278//283
f 266//274 278//283 279//285
f 259//275 258//273 271//284
f 259//275 271//284 272//286
f 267//263 266//274 279//285
f 267//263 279//285 280//287
f 260//265 259//275 272//286
f 260//265 272//286 273//288
f 268//264 267//263 280//287
f 268//264 280//287 281//276
f 261//266 260//265 273//288
f 261//266 273//288 274//277
f 275//278 274//277 287//289
f 275//278 287//289 288//290
f 276//279 275//278 288//290
f 276//279 288//290 289//291
f 269//280 1//28 282//292
f 277//281 276//279 289//291
f 277//281 289//291 290//293
f 270//282 269//280 282//292
f 270//282 282//292 283//294
f 278//283 277//281 290//293
f 278//283 290//293 291//295
f 271//284 270//282 283//294
f 271//284 283//294 284//296
f 279//285 278//283 291//295
f 279//285 291//295 292//297
f 272//286 271//284 284//296
f 272//286 284//296 285//298
f 280//287 279//285 292//297
f 280//287 292//297 293//299
f 273//288 272//286 285//298
f 273//288 285//298 286//300
f 281//276 280//287 293//299
f 281//276 293//299 294//301
f 274//277 273//288 286//300
f 274//277 286//300 287//289
f 8//25 281//276 294//301
f 289//291 288//290 301//302
f 289//291 301//302 302//303
f 282//292 1//28 295//304
f 290//293 289//291 302//303
f 290//293 302//303 303//305
f 283//294 282//292 295//304
f 283//294 295//304 296//306
f 291//295 290//293 303//305
f 291//295 303//305 304//307
f 284//296 283//294 296//306
f 284//296 296//306 297//308
f 292//297 291//295 304//307
f 292//297 304//307 305//309
f 285//298 284//296 297//308
f 285//298 297//308 298//310
f 293//299 292//297 305//309
f 293//299 305//309 306//311
f 286//300 285//298 298//310
f 286//300 298//310 299//312
f 294//301 293//299 306//311
f 294//301 306//311 307//313
f 287//289 286//300 299//312
f 287//289 299//312 300//314
f 8//25 294//301 307//313
f 288//290 287//289 300//314
f 288//290 300//314 301//302
f 302//303 301//302 314//315
f 302//303 314//315 315//316
f 295//304 1//28 308//317
f 303//305 302//303 315//316
f 303//305 315//316 316//318
f 296//306 295//304 308//317
f 296//306 308//317 309//319
f 304//307 303//305 316//318
f 304//307 316//318 317//320
f 297//308 296//306 309//319
f 297//308 309//319 310//321
f 305//309 304//307 317//320
f 305//309 317//320 318//322
f 298//310 297//308 310//321
f 298//310 310//321 311//323
f 306//311 305//309 318//322
f 306//311 318//322 319//324
f 299//312 298//310 311//323
f 299//312 311//323 312//325
f 307//313 306//311 319//324
f 307//313 319//324 320//326
f 300//314 299//312 312//325
f 300//314 312//325 313//327
f 8//25 307//313 320//326
f 301//302 300//314 313//327
f 301//302 313//327 314//315
f 316//318 315//316 328//328
f 316//318 328//328 329//329
f 309//319 308//317 321//330
f 309//319 321//330 322//331
f 317//320 316//318 329//329
f 317//320 329//329 330//332
f 310//321 309//319 322//331
f 310//321 322//331 323//333
f 318//322 317//320 330//332
f 318//322 330//332 331//334
f 311//323 310//321 323//333
f 311//323 323//333 324//335
f 319//324 318//322 331//334
f 319//324 331//334 332//336
f 312//325 311//323 324//335
f 312//325 324//335 325//337
f 320//326 319//324 332//336
f 320//326 332//336 333//338
f 313//327 312//325 325//337
f 313//327 325//337 326//339
f 8//25 320//326 333//338
f 314//315 313//327 326//339
f 314//315 326//339 327//340
f 315//316 314//315 327//340
f 315//316 327//340 328//328
f 308//317 1//28 321//330
f 322//331 321//330 334//341
f 322//331 334//341 335//342
f 330//332 329//329 342//343
f 330//332 342//343 343//344
f 323//333 322//331 335//342
f 323//333 335//342 336//345
f 331//334 330//332 343//344
f 331//334 343//344 344//346
f 324//335 323//333 336//345
f 324//335 336//345 337//347
f 332//336 331//334 344//346
f 332//336 344//346 345//348
f 325//337 324//335 337//347
f 325//337 337//347 338//349
f 333//338 332//336 345//348
f 333//338 345//348 346//350
f 326//339 325//337 338//349
f 326//339 338//349 339//351
f 8//25 333//338 346//350
f 327//340 326//339 339//351
f 327//340 339//351 340//352
f 328//328 327//340 340//352
f 328//328 340//352 341//353
f 321//330 1//28 334//341
f 329//329 328//328 341//353
f 329//329 341//353 342//343
f 343//344 342//343 355//354
f 343//344 355//354 356//355
f 336//345 335//342 348//356
f 336//345 348//356 349//357
f 344//346 343//344 356//355
f 344//346 356//355 357//358
f 337//347 336//345 349//357
f 337//347 349//357 350//359
f 345//348 344//346 357//358
f 345//348 357//358 358//360
f 338//349 337//347 350//359
f 338//349 350//359 351//361
f 346//350 345//348 358//360
f 346//350 358//360 359//362
f 339//351 338//349 351//361
f 339//351 351//361 352//363
f 8//25 346//350 359//362
f 340//352 339//351 352//363
f 340//352 352//363 353//364
f 341//353 340//352 353//364
f 341//353 353//364 354//365
f 334//341 1//28 347//366
f 342//343 341//353 354//365
f 342//343 354//365 355//354
f 335//342 334//341 347//366
f 335//342 347//366 348//356
f 349//357 348//356 360//5
f 349//357 360//5 361//11
f 357//358 356//355 6//9
f 357//358 6//9 365//13
f 350//359 349//357 361//11
f 350//359 361//11 3//15
f 358//360 357//358 365//13
f 358//360 365//13 366//17
f 351//361 350//359 3//15
f 351//361 3//15 362//19
f 359//362 358//360 366//17
f 359//362 366//17 7//21
f 352//363 351//361 362//19
f 352//363 362//19 4//23
f 8//25 359//362 7//21
f 353//364 352//363 4//23
f 353//364 4//23 363//26
f 354//365 353//364 363//26
f 354//365 363//26 5//2
f 347//366 1//28 2//6
f 355//354 354//365 5//2
f 355//354 5//2 364//1
f 348//356 347//366 2//6
f 348//356 2//6 360//5
f 356//355 355//354 364//1
f 356//355 364//1 6//9
